<svg id="Component_2_1" data-name="Component 2 – 1" xmlns="http://www.w3.org/2000/svg" xmlns:xlink="http://www.w3.org/1999/xlink" width="335.909" height="207.197" viewBox="0 0 335.909 207.197">
    <defs>
        <radialGradient id="radial-gradient" cx="0.5" cy="0.5" r="0.522" gradientTransform="translate(0)" gradientUnits="objectBoundingBox">
            <stop offset="0.93" stop-color="#fff"/>
            <stop offset="0.938" stop-color="#fbfbfb"/>
            <stop offset="0.945" stop-color="#f1f1f1"/>
            <stop offset="0.951" stop-color="#dfdfdf"/>
            <stop offset="0.957" stop-color="#c6c6c6"/>
            <stop offset="0.963" stop-color="#a6a6a6"/>
            <stop offset="0.969" stop-color="#7f7f7f"/>
            <stop offset="0.975" stop-color="#505050"/>
            <stop offset="0.98" stop-color="#1b1b1b"/>
            <stop offset="0.983"/>
        </radialGradient>
        <radialGradient id="radial-gradient-2" cx="0.5" cy="0.5" r="0.5" gradientTransform="matrix(0.866, -0.5, 0.5, 0.866, 0.026, -0.017)" gradientUnits="objectBoundingBox">
            <stop offset="0.842"/>
            <stop offset="0.967" stop-color="#e4e4e4"/>
            <stop offset="1" stop-color="#f6f6f6"/>
        </radialGradient>
        <radialGradient id="radial-gradient-3" cx="0.5" cy="0.5" r="0.519" gradientTransform="translate(0)" gradientUnits="objectBoundingBox">
            <stop offset="0.71" stop-color="#fff"/>
            <stop offset="0.986" stop-color="#ccc"/>
        </radialGradient>
        <linearGradient id="linear-gradient" x1="0.5" y1="-0.152" x2="0.5" y2="1.028" gradientUnits="objectBoundingBox">
            <stop offset="0.117" stop-color="#a8a8a8"/>
            <stop offset="1" stop-color="#fff"/>
        </linearGradient>
        <radialGradient id="radial-gradient-4" cx="0.497" cy="0.519" r="0.596" gradientTransform="translate(0)" gradientUnits="objectBoundingBox">
            <stop offset="0.273" stop-color="#fff"/>
            <stop offset="0.534" stop-color="#fdfdfd"/>
            <stop offset="0.629" stop-color="#f6f6f6"/>
            <stop offset="0.696" stop-color="#eaeaea"/>
            <stop offset="0.75" stop-color="#d9d9d9"/>
            <stop offset="0.796" stop-color="#c3c3c3"/>
            <stop offset="0.816" stop-color="#b8b8b8"/>
            <stop offset="0.96" stop-color="#1a1a1a"/>
        </radialGradient>
        <clipPath id="clip-path">
            <path id="Path_1334" data-name="Path 1334" d="M697.078,417.347l-.02,70.6,65.055-37.525V417.347Z" transform="translate(-697.058 -417.347)" fill="none"/>
        </clipPath>
        <clipPath id="clip-path-2">
            <path id="Path_1332" data-name="Path 1332" d="M622.72,420.019a68.747,68.747,0,1,0,68.75,68.746A68.825,68.825,0,0,0,622.72,420.019Zm0,117.617a49.14,49.14,0,1,1,49.14-49.14A49.2,49.2,0,0,1,622.721,537.636Z" transform="translate(-553.971 -420.019)" fill="none"/>
        </clipPath>
        <radialGradient id="radial-gradient-5" cx="0.5" cy="0.5" r="0.5" gradientTransform="translate(0)" gradientUnits="objectBoundingBox">
            <stop offset="0.978" stop-color="#184e67"/>
            <stop offset="1" stop-color="#2982ad"/>
        </radialGradient>
        <radialGradient id="radial-gradient-6" cx="0.5" cy="0.5" r="0.5" gradientTransform="translate(0)" gradientUnits="objectBoundingBox">
            <stop offset="0.788" stop-color="#245875"/>
            <stop offset="0.875" stop-color="#48b0ea"/>
            <stop offset="0.943" stop-color="#4ab7ed"/>
            <stop offset="0.975" stop-color="#61c2f2"/>
            <stop offset="1" stop-color="#4ab7ed"/>
        </radialGradient>
        <radialGradient id="radial-gradient-7" cx="0.497" cy="0.519" r="0.596" gradientTransform="translate(0)" gradientUnits="objectBoundingBox">
            <stop offset="0" stop-color="#52c1ff"/>
            <stop offset="0.594" stop-color="#51bffd"/>
            <stop offset="0.808" stop-color="#4ebaf6"/>
            <stop offset="0.96" stop-color="#49b0ea"/>
            <stop offset="1" stop-color="#47ade6"/>
        </radialGradient>
    </defs>
    <g id="background">
        <g id="Group_648" data-name="Group 648" transform="translate(0 184.82)">
            <path id="Path_1260" data-name="Path 1260" d="M578.968,669.974c0,3.184-51.409,20.386-140.856,20.386s-141.925-16.315-141.925-19.5S578.968,666.79,578.968,669.974Z" transform="translate(-296.187 -667.984)" fill="#707070" opacity="0.1"/>
        </g>
        <path id="Path_1261" data-name="Path 1261" d="M385.309,230.622q0-18.577,11.962-30.469t31.384-11.892q19.7,0,31.595,11.892t11.892,31.173v10.133q0,18.438-11.892,30.258t-31.314,11.822q-19,0-31.313-11.611t-12.314-31.314Z" transform="translate(-345.487 -188.261)" fill="#f1f2f2"/>
        <path id="Path_1262" data-name="Path 1262" d="M440.692,268.234q0,9.737,5.418,15.734t14.284,6a17.955,17.955,0,0,0,14.074-6q5.346-6,5.348-16.3v-10.3q0-9.737-5.418-15.8T460.113,235.5q-8.866,0-14.144,6.137t-5.278,16.156Z" transform="translate(-377.482 -215.162)" fill="#91ccf4"/>
        <path id="Path_1263" data-name="Path 1263" d="M479.954,408.195l-18.086-10.024L564.741,239.735l18.086,10.024Z" transform="translate(-382.263 -239.735)" fill="#f1f2f2"/>
        <g id="Group_686" data-name="Group 686" transform="translate(143.466 64.396)">
            <g id="clock" transform="translate(0 20.62)">
                <g id="Group_649" data-name="Group 649">
                    <path id="Path_1264" data-name="Path 1264" d="M643.923,558.544a49.14,49.14,0,1,1,49.14-49.14,49.2,49.2,0,0,1-49.14,49.14Z" transform="translate(-594.781 -460.264)" fill="url(#radial-gradient)"/>
                    <path id="Path_1265" data-name="Path 1265" d="M668.848,552.1a48.549,48.549,0,1,1,17.771-66.319A48.6,48.6,0,0,1,668.848,552.1Z" transform="translate(-595.432 -460.914)" fill="url(#radial-gradient-2)"/>
                    <path id="Path_1266" data-name="Path 1266" d="M647.71,558.83a45.64,45.64,0,1,1,45.639-45.641A45.692,45.692,0,0,1,647.71,558.83Z" transform="translate(-598.568 -464.049)" fill="url(#radial-gradient-3)"/>
                    <path id="Path_1267" data-name="Path 1267" d="M651.491,559.114a42.143,42.143,0,1,1,42.142-42.144,42.192,42.192,0,0,1-42.142,42.144Z" transform="translate(-602.348 -467.83)" fill="url(#linear-gradient)"/>
                </g>
                <g id="Group_682" data-name="Group 682" transform="translate(7.722 7.992)">
                    <path id="Path_1268" data-name="Path 1268" d="M652.271,559.735a41.419,41.419,0,1,1,41.42-41.419,41.466,41.466,0,0,1-41.42,41.419Z" transform="translate(-610.852 -476.898)" fill="url(#radial-gradient-4)"/>
                    <g id="Group_681" data-name="Group 681" transform="translate(2.308 2.876)">
                        <path id="Path_1269" data-name="Path 1269" d="M654.4,561.105V557.14h.734v3.965Zm17.623-8.491.634-.366,1.983,3.433-.635.366Zm-37.128,3.068,1.983-3.434.634.366-1.983,3.433Zm50.127-15.8.366-.635,3.434,1.983-.366.635Zm-64.309,1.348,3.434-1.982.366.635-3.434,1.982Zm69.2-18.871v-.732h3.966v.732Zm-74.257,0v-.733h3.965v.732Zm5.056-19.6.366-.634,3.434,1.983-.366.634Zm64.309,1.349,3.434-1.983.366.634-3.434,1.982Zm-50.127-15.8.634-.366,1.983,3.435-.634.365Zm37.129,3.068,1.982-3.434.635.367-1.982,3.433ZM654.4,486.85v-3.965h.733v3.966Z" transform="translate(-615.656 -482.884)" fill="#1a1a1a"/>
                        <g id="Group_680" data-name="Group 680" transform="translate(0.075 0.075)">
                            <g id="Group_650" data-name="Group 650" transform="translate(34.819 0.199)">
                                <path id="Path_1270" data-name="Path 1270" d="M688.813,639.961l-.26,2.46-.273-.029.258-2.461.275.03Z" transform="translate(-688.28 -564.749)" fill="#1a1a1a"/>
                                <path id="Path_1271" data-name="Path 1271" d="M705.262,483.484l-.257,2.442-.273-.03.256-2.441.274.03Z" transform="translate(-696.827 -483.454)" fill="#1a1a1a"/>
                            </g>
                            <g id="Group_651" data-name="Group 651" transform="translate(30.786 0.824)">
                                <path id="Path_1272" data-name="Path 1272" d="M680.67,638.714l-.515,2.419-.268-.057.514-2.421.27.058Z" transform="translate(-679.886 -564.711)" fill="#1a1a1a"/>
                                <path id="Path_1273" data-name="Path 1273" d="M713.386,484.813l-.51,2.4-.269-.059.51-2.4.269.059Z" transform="translate(-696.886 -484.755)" fill="#1a1a1a"/>
                            </g>
                            <g id="Group_652" data-name="Group 652" transform="translate(26.842 1.868)">
                                <path id="Path_1274" data-name="Path 1274" d="M672.705,636.652,671.939,639l-.261-.084.764-2.354.263.086Z" transform="translate(-671.678 -564.668)" fill="#1a1a1a"/>
                                <path id="Path_1275" data-name="Path 1275" d="M721.333,487.013l-.758,2.335-.262-.086.758-2.335.262.086Z" transform="translate(-696.945 -486.927)" fill="#1a1a1a"/>
                            </g>
                            <g id="Group_653" data-name="Group 653" transform="translate(23.033 3.319)">
                                <path id="Path_1276" data-name="Path 1276" d="M665.008,633.8,664,636.055l-.251-.112,1.006-2.261.252.113Z" transform="translate(-663.75 -564.622)" fill="#1a1a1a"/>
                                <path id="Path_1277" data-name="Path 1277" d="M729.014,490.06l-1,2.243-.251-.113,1-2.243.251.113Z" transform="translate(-697.008 -489.947)" fill="#1a1a1a"/>
                            </g>
                            <g id="Group_654" data-name="Group 654" transform="translate(19.399 5.161)">
                                <path id="Path_1278" data-name="Path 1278" d="M657.662,630.179l-1.238,2.142-.238-.137,1.237-2.143.239.138Z" transform="translate(-656.186 -564.571)" fill="#1a1a1a"/>
                                <path id="Path_1279" data-name="Path 1279" d="M736.344,493.919l-1.227,2.127-.238-.139,1.226-2.126.239.139Z" transform="translate(-697.069 -493.78)" fill="#1a1a1a"/>
                            </g>
                            <g id="Group_655" data-name="Group 655" transform="translate(15.98 7.374)">
                                <path id="Path_1280" data-name="Path 1280" d="M650.748,625.839l-1.455,2-.222-.162,1.454-2,.223.163Z" transform="translate(-649.071 -564.517)" fill="#1a1a1a"/>
                                <path id="Path_1281" data-name="Path 1281" d="M743.244,498.55l-1.443,1.986-.223-.163,1.442-1.987.223.163Z" transform="translate(-697.131 -498.387)" fill="#1a1a1a"/>
                            </g>
                            <g id="Group_656" data-name="Group 656" transform="translate(12.814 9.934)">
                                <path id="Path_1282" data-name="Path 1282" d="M644.341,620.825l-1.656,1.838-.2-.184,1.656-1.839.2.185Z" transform="translate(-642.481 -564.461)" fill="#1a1a1a"/>
                                <path id="Path_1283" data-name="Path 1283" d="M749.637,503.9l-1.642,1.825-.2-.185,1.641-1.825.2.185Z" transform="translate(-697.193 -503.714)" fill="#1a1a1a"/>
                            </g>
                            <g id="Group_657" data-name="Group 657" transform="translate(9.935 12.813)">
                                <path id="Path_1284" data-name="Path 1284" d="M638.511,615.193l-1.838,1.655-.184-.2,1.838-1.657.184.206Z" transform="translate(-636.489 -564.403)" fill="#1a1a1a"/>
                                <path id="Path_1285" data-name="Path 1285" d="M755.454,509.912l-1.824,1.643-.183-.205,1.824-1.643.184.206Z" transform="translate(-697.252 -509.707)" fill="#1a1a1a"/>
                            </g>
                            <g id="Group_658" data-name="Group 658" transform="translate(7.374 15.979)">
                                <path id="Path_1286" data-name="Path 1286" d="M633.324,609l-2,1.454-.162-.222,2-1.454.162.223Z" transform="translate(-631.16 -564.344)" fill="#1a1a1a"/>
                                <path id="Path_1287" data-name="Path 1287" d="M760.633,516.52l-1.986,1.444-.16-.224,1.985-1.444.161.223Z" transform="translate(-697.31 -516.297)" fill="#1a1a1a"/>
                            </g>
                            <g id="Group_659" data-name="Group 659" transform="translate(5.161 19.398)">
                                <path id="Path_1288" data-name="Path 1288" d="M628.834,602.322l-2.142,1.236-.138-.238,2.143-1.237.137.24Z" transform="translate(-626.553 -564.284)" fill="#1a1a1a"/>
                                <path id="Path_1289" data-name="Path 1289" d="M765.114,523.652l-2.126,1.228-.137-.24,2.126-1.228.137.239Z" transform="translate(-697.364 -523.412)" fill="#1a1a1a"/>
                            </g>
                            <g id="Group_660" data-name="Group 660" transform="translate(3.319 23.032)">
                                <path id="Path_1290" data-name="Path 1290" d="M625.091,595.225l-2.26,1.005-.112-.251,2.26-1.007.112.253Z" transform="translate(-622.719 -564.223)" fill="#1a1a1a"/>
                                <path id="Path_1291" data-name="Path 1291" d="M768.85,531.228l-2.244,1-.11-.252,2.242-1,.112.253Z" transform="translate(-697.415 -530.975)" fill="#1a1a1a"/>
                            </g>
                            <g id="Group_661" data-name="Group 661" transform="translate(1.868 26.841)">
                                <path id="Path_1292" data-name="Path 1292" d="M622.138,587.789l-2.354.764-.085-.262,2.354-.764.085.262Z" transform="translate(-619.699 -564.165)" fill="#1a1a1a"/>
                                <path id="Path_1293" data-name="Path 1293" d="M771.8,539.167l-2.336.76-.084-.263,2.335-.76.084.263Z" transform="translate(-697.462 -538.904)" fill="#1a1a1a"/>
                            </g>
                            <g id="Group_662" data-name="Group 662" transform="translate(0.824 30.784)">
                                <path id="Path_1294" data-name="Path 1294" d="M620,580.094l-2.42.514-.058-.269,2.421-.514.057.269Z" transform="translate(-617.527 -564.107)" fill="#1a1a1a"/>
                                <path id="Path_1295" data-name="Path 1295" d="M773.929,547.381l-2.4.511-.056-.27,2.4-.511.057.271Z" transform="translate(-697.505 -547.11)" fill="#1a1a1a"/>
                            </g>
                            <g id="Group_664" data-name="Group 664" transform="translate(0.199 19.399)">
                                <path id="Path_1296" data-name="Path 1296" d="M618.716,572.227l-2.461.258-.029-.274,2.461-.258.028.274Z" transform="translate(-616.227 -548.632)" fill="#1a1a1a"/>
                                <path id="Path_1297" data-name="Path 1297" d="M775.218,555.779l-2.443.258-.027-.274,2.442-.257.028.274Z" transform="translate(-697.544 -540.086)" fill="#1a1a1a"/>
                                <g id="Group_663" data-name="Group 663" transform="translate(4.962)">
                                    <path id="Path_1298" data-name="Path 1298" d="M628.7,524.89l-2.143-1.237.138-.239,2.143,1.237-.138.238Z" transform="translate(-626.554 -523.414)" fill="#1a1a1a"/>
                                    <path id="Path_1299" data-name="Path 1299" d="M764.976,603.57l-2.127-1.227.138-.238,2.127,1.227-.138.239Z" transform="translate(-697.363 -564.296)" fill="#1a1a1a"/>
                                </g>
                            </g>
                            <g id="Group_665" data-name="Group 665" transform="translate(0 38.897)">
                                <path id="Path_1300" data-name="Path 1300" d="M618.286,564.273h-2.474V564h2.474v.276Z" transform="translate(-615.812 -563.996)" fill="#1a1a1a"/>
                                <path id="Path_1301" data-name="Path 1301" d="M775.648,564.272h-2.456V564h2.455v.276Z" transform="translate(-697.575 -563.996)" fill="#1a1a1a"/>
                            </g>
                            <g id="Group_666" data-name="Group 666" transform="translate(0.2 34.819)">
                                <path id="Path_1302" data-name="Path 1302" d="M618.688,556.04l-2.46-.26.028-.273,2.461.258-.029.275Z" transform="translate(-616.228 -555.508)" fill="#1a1a1a"/>
                                <path id="Path_1303" data-name="Path 1303" d="M775.188,572.489l-2.442-.256.03-.274,2.442.255-.029.275Z" transform="translate(-697.543 -564.054)" fill="#1a1a1a"/>
                            </g>
                            <g id="Group_667" data-name="Group 667" transform="translate(0.825 30.785)">
                                <path id="Path_1304" data-name="Path 1304" d="M619.948,547.9l-2.42-.514.057-.269,2.42.515-.057.268Z" transform="translate(-617.528 -547.112)" fill="#1a1a1a"/>
                                <path id="Path_1305" data-name="Path 1305" d="M773.871,580.613l-2.4-.51.058-.27,2.4.509-.059.27Z" transform="translate(-697.505 -564.112)" fill="#1a1a1a"/>
                            </g>
                            <g id="Group_668" data-name="Group 668" transform="translate(1.868 26.842)">
                                <path id="Path_1306" data-name="Path 1306" d="M622.053,539.933l-2.353-.765.085-.262,2.353.765-.085.262Z" transform="translate(-619.7 -538.906)" fill="#1a1a1a"/>
                                <path id="Path_1307" data-name="Path 1307" d="M771.714,588.56l-2.336-.758.086-.262,2.336.758-.086.262Z" transform="translate(-697.462 -564.172)" fill="#1a1a1a"/>
                            </g>
                            <g id="Group_669" data-name="Group 669" transform="translate(3.319 23.033)">
                                <path id="Path_1308" data-name="Path 1308" d="M624.98,532.236l-2.26-1.007.112-.251,2.26,1.006-.112.252Z" transform="translate(-622.719 -530.977)" fill="#1a1a1a"/>
                                <path id="Path_1309" data-name="Path 1309" d="M768.737,596.239l-2.244-1,.113-.252,2.243,1-.112.252Z" transform="translate(-697.414 -564.234)" fill="#1a1a1a"/>
                            </g>
                            <g id="Group_670" data-name="Group 670" transform="translate(7.375 15.98)">
                                <path id="Path_1310" data-name="Path 1310" d="M633.163,517.975l-2-1.454.162-.223,2,1.454-.162.223Z" transform="translate(-631.162 -516.298)" fill="#1a1a1a"/>
                                <path id="Path_1311" data-name="Path 1311" d="M760.47,610.468l-1.987-1.442.162-.223,1.987,1.442-.162.223Z" transform="translate(-697.309 -564.357)" fill="#1a1a1a"/>
                            </g>
                            <g id="Group_671" data-name="Group 671" transform="translate(9.935 12.813)">
                                <path id="Path_1312" data-name="Path 1312" d="M638.328,511.569l-1.838-1.656.184-.2,1.839,1.655-.184.205Z" transform="translate(-636.49 -509.708)" fill="#1a1a1a"/>
                                <path id="Path_1313" data-name="Path 1313" d="M755.269,616.862l-1.825-1.643.185-.2,1.825,1.642-.185.205Z" transform="translate(-697.251 -564.418)" fill="#1a1a1a"/>
                            </g>
                            <g id="Group_672" data-name="Group 672" transform="translate(12.814 9.935)">
                                <path id="Path_1314" data-name="Path 1314" d="M644.137,505.739l-1.656-1.839.2-.184,1.656,1.839-.2.184Z" transform="translate(-642.481 -503.717)" fill="#1a1a1a"/>
                                <path id="Path_1315" data-name="Path 1315" d="M749.431,622.68l-1.643-1.824.205-.184,1.644,1.823-.205.185Z" transform="translate(-697.191 -564.478)" fill="#1a1a1a"/>
                            </g>
                            <g id="Group_673" data-name="Group 673" transform="translate(15.981 7.375)">
                                <path id="Path_1316" data-name="Path 1316" d="M650.526,500.552l-1.453-2,.222-.162,1.455,2-.224.162Z" transform="translate(-649.072 -498.389)" fill="#1a1a1a"/>
                                <path id="Path_1317" data-name="Path 1317" d="M743.02,627.858l-1.444-1.986.224-.162,1.443,1.986-.223.162Z" transform="translate(-697.131 -564.536)" fill="#1a1a1a"/>
                            </g>
                            <g id="Group_674" data-name="Group 674" transform="translate(19.399 5.161)">
                                <path id="Path_1318" data-name="Path 1318" d="M657.424,496.062l-1.236-2.143.238-.138,1.237,2.143-.239.138Z" transform="translate(-656.187 -493.781)" fill="#1a1a1a"/>
                                <path id="Path_1319" data-name="Path 1319" d="M736.1,632.339l-1.228-2.127.239-.138,1.228,2.127-.239.137Z" transform="translate(-697.069 -564.59)" fill="#1a1a1a"/>
                            </g>
                            <g id="Group_675" data-name="Group 675" transform="translate(23.033 3.319)">
                                <path id="Path_1320" data-name="Path 1320" d="M664.757,492.32l-1.007-2.26.251-.112,1.007,2.26-.252.112Z" transform="translate(-663.75 -489.948)" fill="#1a1a1a"/>
                                <path id="Path_1321" data-name="Path 1321" d="M728.761,636.074l-1-2.243.253-.113,1,2.243-.252.112Z" transform="translate(-697.006 -564.641)" fill="#1a1a1a"/>
                            </g>
                            <g id="Group_676" data-name="Group 676" transform="translate(26.843 1.868)">
                                <path id="Path_1322" data-name="Path 1322" d="M672.443,489.366l-.764-2.353.262-.085.765,2.353-.263.085Z" transform="translate(-671.679 -486.928)" fill="#1a1a1a"/>
                                <path id="Path_1323" data-name="Path 1323" d="M721.071,639.024l-.759-2.335.262-.085.759,2.335-.263.085Z" transform="translate(-696.945 -564.689)" fill="#1a1a1a"/>
                            </g>
                            <g id="Group_677" data-name="Group 677" transform="translate(30.786 0.825)">
                                <path id="Path_1324" data-name="Path 1324" d="M680.4,487.233l-.514-2.419.269-.058.514,2.42-.269.057Z" transform="translate(-679.886 -484.757)" fill="#1a1a1a"/>
                                <path id="Path_1325" data-name="Path 1325" d="M713.117,641.154l-.511-2.4.27-.057.511,2.4-.27.057Z" transform="translate(-696.885 -564.732)" fill="#1a1a1a"/>
                            </g>
                            <g id="Group_678" data-name="Group 678" transform="translate(34.819 0.2)">
                                <path id="Path_1326" data-name="Path 1326" d="M688.539,485.945l-.259-2.46.274-.029.259,2.46-.274.029Z" transform="translate(-688.28 -483.455)" fill="#1a1a1a"/>
                                <path id="Path_1327" data-name="Path 1327" d="M704.987,642.442,704.731,640l.274-.029.257,2.442-.274.029Z" transform="translate(-696.827 -564.77)" fill="#1a1a1a"/>
                            </g>
                            <g id="Group_679" data-name="Group 679" transform="translate(38.898)">
                                <path id="Path_1328" data-name="Path 1328" d="M696.771,485.514V483.04h.276v2.474Z" transform="translate(-696.771 -483.04)" fill="#1a1a1a"/>
                                <path id="Path_1329" data-name="Path 1329" d="M696.771,642.874v-2.455h.276v2.455Z" transform="translate(-696.771 -564.802)" fill="#1a1a1a"/>
                            </g>
                        </g>
                    </g>
                </g>
            </g>
            <g id="segment" transform="translate(49.141 0)">
                <g id="Group_685" data-name="Group 685" clip-path="url(#clip-path)">
                    <g id="Group_684" data-name="Group 684" transform="translate(-68.749 1.284)">
                        <g id="Group_683" data-name="Group 683" clip-path="url(#clip-path-2)">
                            <path id="Path_1330" data-name="Path 1330" d="M633.276,558.307a58.985,58.985,0,1,1,58.987-58.986,59.054,59.054,0,0,1-58.987,58.986Z" transform="translate(-564.527 -430.575)" fill="url(#radial-gradient-5)"/>
                            <path id="Path_1331" data-name="Path 1331" d="M634.179,558.375a58.15,58.15,0,1,1,58.152-58.15,58.217,58.217,0,0,1-58.152,58.15Z" transform="translate(-565.43 -431.478)" fill="url(#radial-gradient-6)"/>
                        </g>
                    </g>
                    <path id="Path_1333" data-name="Path 1333" d="M652.271,559.735a41.419,41.419,0,1,1,41.42-41.419,41.466,41.466,0,0,1-41.42,41.419Z" transform="translate(-652.271 -448.285)" opacity="0.89" fill="url(#radial-gradient-7)" style="mix-blend-mode: multiply;isolation: isolate"/>
                </g>
            </g>
        </g>
    </g>
    <g id="content" transform="translate(36.893 2.943)">
        <g id="Group_693" data-name="Group 693" transform="translate(192.506 104.1)">
            <g id="Group_687" data-name="Group 687" transform="translate(49.9 70.568)">
                <path id="Path_1335" data-name="Path 1335" d="M920.084,652.98l4.455,4.538-6.518,2-3.877-4.578Z" transform="translate(-913.629 -652.98)" fill="#a4dfff"/>
                <path id="Path_1336" data-name="Path 1336" d="M921.108,655.974c.564-.083,3.039-2.888,3.039-2.888h0a2.442,2.442,0,0,1,1.4,2.21v1.3l7.088,2.613a1.678,1.678,0,0,1,1.075,1.3h0a1.678,1.678,0,0,1-1.235,1.9h0a20.87,20.87,0,0,1-5.864.656l-11.441-.348a2.165,2.165,0,0,1-2.073-2.5l.346-2.2a1.316,1.316,0,0,1,1.618-1.073c1.023.255,2.283.563,2.567.61C918.124,657.635,921.108,655.974,921.108,655.974Z" transform="translate(-913.073 -653.035)" fill="#3c3c3b"/>
                <path id="Path_1337" data-name="Path 1337" d="M932.478,669.9a1.678,1.678,0,0,0,1.235-1.9,1.659,1.659,0,0,0-.15-.461,9.813,9.813,0,0,1-6.993,1.751L913.131,667.5l-.032.2a2.165,2.165,0,0,0,2.073,2.5l11.441.348A20.874,20.874,0,0,0,932.478,669.9Z" transform="translate(-913.073 -660.526)" fill="#c5c8c9"/>
                <line id="Line_6" data-name="Line 6" x1="1.568" y2="1.578" transform="translate(11.192 3.465)" fill="none" stroke="#e6e7e8" stroke-linecap="round" stroke-miterlimit="10" stroke-width="0.993"/>
                <line id="Line_7" data-name="Line 7" x1="1.424" y2="1.433" transform="translate(12.801 3.94)" fill="none" stroke="#e6e7e8" stroke-linecap="round" stroke-miterlimit="10" stroke-width="0.993"/>
                <line id="Line_8" data-name="Line 8" x1="1.205" y2="1.213" transform="translate(14.396 4.546)" fill="none" stroke="#e6e7e8" stroke-linecap="round" stroke-miterlimit="10" stroke-width="0.993"/>
                <line id="Line_9" data-name="Line 9" x1="0.956" y2="0.962" transform="translate(15.944 4.959)" fill="none" stroke="#e6e7e8" stroke-linecap="round" stroke-miterlimit="10" stroke-width="0.993"/>
            </g>
            <path id="Path_1338" data-name="Path 1338" d="M855.833,616.153s13.88-21.571,20.945-22.141c2.743.031,8.575,12.772,11.719,19.965,1.682,3.849,3.866,8.9,3.089,9.358,0,0-5.52,2.878-7,1.306l-8.481-15.08s-4.614,14.15-9.3,15.08S855.833,616.153,855.833,616.153Z" transform="translate(-833.435 -551.777)" fill="#18599b"/>
            <path id="Path_1339" data-name="Path 1339" d="M855.833,616.153s13.88-21.571,20.945-22.141c2.743.031,8.575,12.772,11.719,19.965,1.682,3.849,3.866,8.9,3.089,9.358,0,0-5.52,2.878-7,1.306l-8.481-15.08s-4.614,14.15-9.3,15.08S855.833,616.153,855.833,616.153Z" transform="translate(-833.435 -551.777)" opacity="0.1"/>
            <path id="Path_1340" data-name="Path 1340" d="M886.875,621.138c1.421,4.176,9.634,17.2,11.254,17.874-1.186.276-2.308.312-2.862-.277l-8.481-15.08s-4.613,14.15-9.3,15.08S884.532,630.426,886.875,621.138Z" transform="translate(-844.113 -565.869)" opacity="0.07"/>
            <g id="Group_690" data-name="Group 690" transform="translate(12.766 30.087)">
                <path id="Path_1341" data-name="Path 1341" d="M894.354,579.5l-3.294-.41-1.681-.652.031-.939a.451.451,0,0,0-.76-.031l-2.018,2.89-1.219,3.2-12.846,3.107s-6.133,1.817-3.187,3.626c1.858.8,13.068-1.374,17.358-3.564,2.41-1.231,2.771.626,5.484-2.732a13.891,13.891,0,0,0,.978-2.331C893.825,580.395,894.354,579.5,894.354,579.5Z" transform="translate(-852.822 -573.167)" fill="#f7a56d"/>
                <path id="Path_1342" data-name="Path 1342" d="M865.576,579.211l-14.29-.914-11.536-9.57-3.964,7.516s7.043,6.163,9.989,7.971c1.858.8,16.112,2.876,20.4.685,1.973-1.007.6-4.256.036-5.4A.543.543,0,0,0,865.576,579.211Z" transform="translate(-835.786 -568.727)" fill="#2daa7d"/>
                <g id="Group_689" data-name="Group 689" transform="translate(33.909 1.24)">
                    <g id="Group_688" data-name="Group 688">
                        <path id="Path_1343" data-name="Path 1343" d="M910.75,571.534l-4.34,8.119a.429.429,0,0,0,.176.581l2.455,1.312,4.744-8.875-2.455-1.312A.429.429,0,0,0,910.75,571.534Z" transform="translate(-906.36 -571.307)" fill="#3c3c3b"/>
                        <rect id="Rectangle_141" data-name="Rectangle 141" width="8.622" height="2.422" rx="0.626" transform="matrix(0.471, -0.882, 0.882, 0.471, 0.414, 8.209)" fill="#fff"/>
                        <rect id="Rectangle_142" data-name="Rectangle 142" width="10.064" height="0.958" rx="0.479" transform="matrix(0.471, -0.882, 0.882, 0.471, 2.445, 10.112)" fill="#bcbec0"/>
                        <path id="Path_1344" data-name="Path 1344" d="M920.534,575.726l-.394.737a.182.182,0,1,0,.321.171l.394-.737a.182.182,0,0,0-.321-.172Z" transform="translate(-913.508 -573.553)" fill="#fff"/>
                        <path id="Path_1345" data-name="Path 1345" d="M917.873,579.6l-.937,1.753a.182.182,0,1,0,.321.172l.937-1.753a.182.182,0,0,0-.321-.172Z" transform="translate(-911.843 -575.567)" fill="#fff"/>
                    </g>
                </g>
                <path id="Path_1346" data-name="Path 1346" d="M915.244,581.458h0a.683.683,0,0,1,.531-.806l2.217-.456a.683.683,0,0,1,.806.532h0a.683.683,0,0,1-.531.806l-2.217.455A.683.683,0,0,1,915.244,581.458Z" transform="translate(-877.059 -574.679)" fill="#f7a56d"/>
                <path id="Path_1347" data-name="Path 1347" d="M914.046,584.181h0a.683.683,0,0,1,.531-.807l2.217-.455a.683.683,0,0,1,.807.531h0a.683.683,0,0,1-.532.806l-2.217.456A.683.683,0,0,1,914.046,584.181Z" transform="translate(-876.437 -576.093)" fill="#f7a56d"/>
                <path id="Path_1348" data-name="Path 1348" d="M912.875,586.934h0a.683.683,0,0,1,.66-.705l2.262-.076a.683.683,0,0,1,.705.659h0a.683.683,0,0,1-.659.706l-2.262.076A.683.683,0,0,1,912.875,586.934Z" transform="translate(-875.836 -577.78)" fill="#f7a56d"/>
                <path id="Path_1349" data-name="Path 1349" d="M912.291,589.14h0a.565.565,0,0,1,.617-.506l1.861.184a.565.565,0,0,1,.506.617h0a.565.565,0,0,1-.617.506l-1.861-.184A.564.564,0,0,1,912.291,589.14Z" transform="translate(-875.531 -579.068)" fill="#f7a56d"/>
            </g>
            <line id="Line_10" data-name="Line 10" x2="3.853" y2="5.785" transform="translate(16.817 26.969)" fill="none" stroke="#e6e7e8" stroke-linecap="round" stroke-miterlimit="10" stroke-width="0.993"/>
            <path id="Path_1350" data-name="Path 1350" d="M844.218,562.238s4.83,3.772,6.286,6.816" transform="translate(-827.401 -535.269)" fill="none" stroke="#e6e7e8" stroke-linecap="round" stroke-miterlimit="10" stroke-width="0.993"/>
            <path id="Path_1351" data-name="Path 1351" d="M823.648,533.283l2.339-6.006-1.651-8.116,6.677-6.256,10.229,5.649-.9,3.978-.243,4.862a1.143,1.143,0,0,1-.9,1.176l-.582.126-1.371,3.236a2.585,2.585,0,0,1-3.507,1.371l-.028-.015-.543-.284-2.086,4.711Z" transform="translate(-816.714 -509.639)" fill="#ffb380"/>
            <g id="Group_692" data-name="Group 692" transform="translate(16.557 61.633)">
                <g id="Group_691" data-name="Group 691" transform="translate(76.075)">
                    <path id="Path_1352" data-name="Path 1352" d="M1005.284,654.695a19.991,19.991,0,0,0,4.911-5.973l2.425,8.992s1.3,4.021-2.421,3.24a14.393,14.393,0,0,0-2.4-.441c-2.8.148-5.784-.036-5.784-.036S1003.1,656.629,1005.284,654.695Z" transform="translate(-1002.011 -641.833)" fill="#f96058"/>
                    <path id="Path_1353" data-name="Path 1353" d="M1011.894,646.46c-.024-.569-2.561-3.319-2.561-3.319h0a2.444,2.444,0,0,1,2.343-1.169l1.289.133,3.326-6.783a1.679,1.679,0,0,1,1.4-.936h0a1.678,1.678,0,0,1,1.764,1.424h0a20.855,20.855,0,0,1,.051,5.9l-1.519,11.345a2.165,2.165,0,0,1-2.7,1.806l-2.15-.569a1.316,1.316,0,0,1-.9-1.719c.358-.992.794-2.213.871-2.49C1013.24,649.6,1011.894,646.46,1011.894,646.46Z" transform="translate(-1005.815 -634.383)" fill="#3c3c3b"/>
                    <path id="Path_1354" data-name="Path 1354" d="M1025.687,635.81a1.671,1.671,0,0,0-2.237-1.322,9.813,9.813,0,0,1,1.024,7.135l-3.15,13.186.195.051a2.165,2.165,0,0,0,2.7-1.806l1.519-11.345A20.864,20.864,0,0,0,1025.687,635.81Z" transform="translate(-1012.045 -634.383)" fill="#c5c8c9"/>
                    <line id="Line_11" data-name="Line 11" x2="1.409" y2="1.721" transform="translate(7.087 7.432)" fill="none" stroke="#e6e7e8" stroke-linecap="round" stroke-miterlimit="10" stroke-width="0.993"/>
                    <line id="Line_12" data-name="Line 12" x2="1.28" y2="1.563" transform="translate(7.71 6.023)" fill="none" stroke="#e6e7e8" stroke-linecap="round" stroke-miterlimit="10" stroke-width="0.993"/>
                    <line id="Line_13" data-name="Line 13" x2="1.084" y2="1.323" transform="translate(8.454 4.717)" fill="none" stroke="#e6e7e8" stroke-linecap="round" stroke-miterlimit="10" stroke-width="0.993"/>
                    <line id="Line_14" data-name="Line 14" x2="0.859" y2="1.049" transform="translate(8.998 3.467)" fill="none" stroke="#e6e7e8" stroke-linecap="round" stroke-miterlimit="10" stroke-width="0.993"/>
                </g>
                <path id="Path_1355" data-name="Path 1355" d="M843.676,641.737v5.154a7.415,7.415,0,0,0,6.877,7.717c4.5.6,28.7-.537,34.364-1.228,15.135,1.828,36.914,2.132,37.816.935s.739-4.983-.11-5.973c-.71-1.235-28.7-4.063-34.411-5.466-3.947-.97-21.627-1.921-27.962-2.9l-1.178-3.138Z" transform="translate(-843.676 -635.659)" fill="#18599b"/>
                <path id="Path_1356" data-name="Path 1356" d="M922.91,664.884q.048-.1.092-.212c.009-.024.019-.047.028-.072.035-.1.067-.2.1-.312.005-.021.01-.043.015-.064q.035-.139.063-.287c.007-.036.013-.071.02-.108.017-.1.033-.2.046-.306,0-.024.007-.047.01-.071.013-.111.022-.224.031-.338-5.382,4.379-27.944-.44-38.393-.44-3.635-1.818-27.13,3.21-33.655,2.01a9.224,9.224,0,0,1-7.586-6.922,7.415,7.415,0,0,0,6.877,7.717c.078.01.172.02.258.03,5.094.527,28.54-.579,34.106-1.258,13.354,1.612,31.878,2.04,36.672,1.295a2.785,2.785,0,0,0,1.144-.36,1.8,1.8,0,0,0,.141-.228C922.886,664.933,922.9,664.909,922.91,664.884Z" transform="translate(-843.676 -646.529)" opacity="0.07"/>
            </g>
            <path id="Path_1357" data-name="Path 1357" d="M816.787,552.26c-5.635,4.289-7.577,22.331-4.82,29.516,5.523,14.392,11.685,25.595,15.236,23.645s14.6-4.89,15.635-10.291c.368-1.914-7.587-8.732-12.419-25.286-.841-2.881-.357-8.278-2.136-10.7C824.016,553.348,818.032,551.255,816.787,552.26Z" transform="translate(-810.001 -529.959)" fill="#2daa7d"/>
            <path id="Path_1358" data-name="Path 1358" d="M823.3,525.535s3.525-2.583,3.616-2.988c.046-.2.318-1.374.579-2.5a2.409,2.409,0,0,1,2.778-1.824h0l-.314,2.909,1.291.3,1.174-4.992a1.408,1.408,0,0,1,1.894-.984l4.988,2,.76-.393a4.6,4.6,0,0,0,2.464-3.68h0a4.6,4.6,0,0,0-1.362-3.683l-3.351-3.281-.858,1.931-2.41-1.252a8.77,8.77,0,0,0-7.827-.13l-.749.358a8.77,8.77,0,0,0-4.861,6.429h0a8.771,8.771,0,0,0,.263,4.068,57.711,57.711,0,0,1,1.674,6.382Z" transform="translate(-815.334 -506.108)" fill="#4c3c38"/>
            <path id="Path_1359" data-name="Path 1359" d="M837.569,549.349a8.737,8.737,0,0,0,1.455,5.634l1.349-3.045Z" transform="translate(-823.923 -528.573)" fill="#efa878"/>
            <path id="Path_1360" data-name="Path 1360" d="M826.71,557.53s-8.99-6.431-14.389,3.145c-.511.907-.669,2.962-1.618,3.03-.778.446-2.729-3.349-.327-4.947,1.085-.722-1.316-.765-.145-3.047,1.356-2.643,2.322-5.21,6.218-4.83S828.256,555.338,826.71,557.53Z" transform="translate(-809.217 -529.349)" fill="#2cc68f"/>
            <path id="Path_1361" data-name="Path 1361" d="M891.234,589.318l.322-3.55,2.821-2.776,3.064-.753h0a1.725,1.725,0,0,1-1.045,1.611l-1.277.547,1.853.419.611,1.21-.429,2.307s-1.978,4.143-8.5,5.888-6.665-2.922-6.665-2.922Z" transform="translate(-847.023 -545.66)" fill="#f9b78a"/>
            <path id="Path_1362" data-name="Path 1362" d="M820.878,564.973c2.488-2.8,6.87-1.941,9.623.711,1.649,1.588,10.444,12.368,10.444,12.368l16.827,1.031a1.08,1.08,0,0,1,.948.813c.357,1.44.877,4.532-1.02,5.249-2.843,1.074-18.086,2.83-21.006,1.205a73.682,73.682,0,0,1-12.064-8.144C817.938,572.354,818.754,567.364,820.878,564.973Z" transform="translate(-814.483 -535.791)" fill="#2cc68f"/>
        </g>
        <g id="Group_698" data-name="Group 698" transform="translate(0 107.059)">
            <path id="Path_1363" data-name="Path 1363" d="M358.891,635.356a25.155,25.155,0,0,0,13.067,3.774c7.42,0,13.71-3.717,14.456-3.863a18.015,18.015,0,0,1,1.344,2.592.165.165,0,0,1-.022.167L375.77,652.181a21.511,21.511,0,0,1-6.158.092l-12-14.4a.164.164,0,0,1-.018-.184S358.812,635.317,358.891,635.356Z" transform="translate(-335.586 -576.169)" fill="#282f42"/>
            <path id="Path_1364" data-name="Path 1364" d="M358.194,638.571a7.578,7.578,0,0,1,.7-1.186,25.156,25.156,0,0,0,13.067,3.774c7.42,0,13.71-3.716,14.456-3.863a13.337,13.337,0,0,1,.78,1.371l.542-.642a.165.165,0,0,0,.022-.167,18.015,18.015,0,0,0-1.344-2.592c-.746.146-7.036,3.863-14.456,3.863a25.155,25.155,0,0,1-13.067-3.774c-.079-.039-1.3,2.331-1.3,2.331a.164.164,0,0,0,.018.184Z" transform="translate(-335.586 -576.169)" fill="#2a2a2b"/>
            <path id="Path_1365" data-name="Path 1365" d="M408.423,643.925c4.623-2.231,14.734-8.24,18.993-17.237.592-1.251-.889-6.537-5.742-4.828-3,1.056-18.6,6.327-21.124,9.671-4.074,5.4-4.263,10.322-5.1,13.51C397.738,646.029,406.112,645.04,408.423,643.925Z" transform="translate(-355.262 -569.029)" fill="#282f42"/>
            <path id="Path_1366" data-name="Path 1366" d="M334.012,643.691c-4.622-2.231-18.012-11.879-18.635-17.272-.159-1.375-1.5-5.591,4.256-5.409,3,1.057,19.78,7.164,22.609,10.251,3.545,3.869,4.709,10.568,5.1,13.51C345.054,645.76,336.324,644.806,334.012,643.691Z" transform="translate(-313.535 -568.759)" fill="#282f42"/>
            <path id="Path_1367" data-name="Path 1367" d="M364.211,641.91a85.321,85.321,0,0,1-11.027-1.116c-5.256-2.142-34.036-18.08-34.036-18.08-4.658-1.233-5.914,2.838-4.5,5.319,3.67,6.456,7.115,10.164,20.144,11.889a91.113,91.113,0,0,1,15.181,4.181c.267.909,1.2,1.93,3.377,2.147,1.155.115,7.731,2.471,10.789,2.2,5.095-.448,5.073-2.721,5.095-3.73S368,642.077,364.211,641.91Z" transform="translate(-312.999 -569.529)" fill="#ffb380"/>
            <g id="Group_694" data-name="Group 694" transform="translate(36.228 71.087)">
                <path id="Path_1368" data-name="Path 1368" d="M402.2,661.512a85.358,85.358,0,0,1-11.027-1.116c-.124-.05-.265-.112-.414-.178l-3.543,3.216c.258.092.507.182.742.27.267.91,1.2,1.93,3.377,2.147,1.154.115,7.731,2.471,10.788,2.2,5.095-.448,5.073-2.721,5.095-3.73S405.985,661.68,402.2,661.512Z" transform="translate(-387.211 -660.219)" fill="#083b84"/>
                <path id="Path_1369" data-name="Path 1369" d="M402.934,669.578c5.095-.448,5.073-2.721,5.095-3.73.02-.893-.96-2.274-3.808-2.7a7.456,7.456,0,0,0-1.912,4.953c-5.758.223-10.853-1.8-13.529-2.845.278.9,1.217,1.9,3.366,2.117C393.3,667.49,399.876,669.847,402.934,669.578Z" transform="translate(-388.026 -661.742)" fill="#dce8ef"/>
                <path id="Path_1370" data-name="Path 1370" d="M400.4,660.839h0a6.129,6.129,0,0,0-.916,3.261v.247" transform="translate(-393.584 -660.541)" fill="none" stroke="#e6e7e8" stroke-linecap="round" stroke-miterlimit="10" stroke-width="0.942"/>
                <path id="Path_1371" data-name="Path 1371" d="M403.632,661.356h0a6.124,6.124,0,0,0-.916,3.26v.246" transform="translate(-395.266 -660.81)" fill="none" stroke="#e6e7e8" stroke-linecap="round" stroke-miterlimit="10" stroke-width="0.942"/>
                <path id="Path_1372" data-name="Path 1372" d="M406.907,661.773h0a6.133,6.133,0,0,0-.916,3.26l0,.246" transform="translate(-396.968 -661.026)" fill="none" stroke="#e6e7e8" stroke-linecap="round" stroke-miterlimit="10" stroke-width="0.942"/>
                <path id="Path_1373" data-name="Path 1373" d="M409.687,662.09h0a6.132,6.132,0,0,0-.916,3.261v.246" transform="translate(-398.412 -661.191)" fill="none" stroke="#e6e7e8" stroke-linecap="round" stroke-miterlimit="10" stroke-width="0.942"/>
            </g>
            <path id="Path_1374" data-name="Path 1374" d="M382.662,658.551c-.8-.327-2.15-.993-3.854-1.885h0c-1.213.669-2.637,1.47-2.986,1.627-.4.09-3.15.45-4.983.854,3.125.849,6.389,1.885,8.609,2.713a2.347,2.347,0,0,0,.29.619c2.318-1.26,8.082-2.111,10.368-3.032A67.369,67.369,0,0,1,382.662,658.551Z" transform="translate(-342.478 -587.286)" opacity="0.05"/>
            <path id="Path_1375" data-name="Path 1375" d="M317.909,620.819s15.773,9.137,26.1,14.634a24.8,24.8,0,0,1-.39,4.546,40.31,40.31,0,0,1-3.542,4.837c-3.718-2.436-5.473-3.539-7.735-4.226-15.106-4.592-16.467-6.742-20.137-13.2C310.8,624.932,313.25,619.586,317.909,620.819Z" transform="translate(-311.811 -568.568)" fill="#2e364d"/>
            <path id="Path_1376" data-name="Path 1376" d="M312.053,629.066c-.023-.059-.047-.117-.067-.178-.012-.035-.02-.072-.03-.107-.017-.057-.033-.113-.047-.171-.009-.039-.015-.078-.023-.118-.011-.057-.023-.114-.031-.173-.006-.041-.01-.082-.014-.123-.007-.059-.013-.118-.017-.178,0-.042,0-.085-.005-.126,0-.061,0-.122,0-.184,0-.042,0-.085,0-.127,0-.063.005-.127.01-.191,0-.042.008-.084.012-.126q.01-.1.023-.2c.006-.041.012-.081.019-.122q.017-.1.039-.2c.008-.039.016-.078.026-.117.016-.071.035-.141.054-.212.01-.037.02-.073.031-.11.022-.073.045-.146.07-.219.012-.034.023-.068.036-.1.027-.076.057-.151.088-.226.012-.03.025-.061.038-.092.034-.078.07-.156.108-.233.013-.026.025-.053.038-.08.041-.081.085-.162.13-.242.012-.021.023-.042.036-.063.051-.087.1-.173.161-.257l.024-.039c.065-.1.133-.192.2-.284h0c.1.167.194.338.292.523,4.2,7.9,25.821,15.479,30.366,17v0a40.4,40.4,0,0,1-3.541,4.836c-3.718-2.435-5.473-3.539-7.735-4.226-15.106-4.592-16.467-6.742-20.137-13.2a2.688,2.688,0,0,1-.123-.248C312.074,629.125,312.064,629.095,312.053,629.066Z" transform="translate(-311.813 -570.556)" opacity="0.05"/>
            <path id="Path_1377" data-name="Path 1377" d="M367.483,660.685c.016-.055.033-.135.052-.233a44.676,44.676,0,0,1-9.015,1.378c-.274,0-.533.013-.78.028a43.751,43.751,0,0,1,6.2,3.664A40.3,40.3,0,0,0,367.483,660.685Z" transform="translate(-335.672 -589.253)" fill="#323233"/>
            <path id="Path_1378" data-name="Path 1378" d="M398.645,623.626s-29.273,16.644-34.206,17.813a71.875,71.875,0,0,1-11.294,1.146c-3.793.047-4.271,1.837-4.249,2.847s2.119,3.271,3.68,3.471c4.815.615,10.611-1.582,11.765-1.7a4.187,4.187,0,0,0,3.825-2.939,81.984,81.984,0,0,1,15.117-3.7c13.136-1.595,16.474-6.017,20.144-12.473C404.837,625.613,403.3,622.393,398.645,623.626Z" transform="translate(-331.077 -569.98)" fill="#ffb380"/>
            <path id="Path_1379" data-name="Path 1379" d="M424.33,621.326s-15.773,9.137-26.1,14.635a24.857,24.857,0,0,0,.39,4.546,40.354,40.354,0,0,0,3.542,4.837c3.718-2.436,5.472-3.539,7.735-4.226,15.107-4.592,16.467-6.742,20.137-13.2C431.441,625.439,428.988,620.093,424.33,621.326Z" transform="translate(-356.707 -568.832)" fill="#2e364d"/>
            <path id="Path_1380" data-name="Path 1380" d="M430.609,629.573c.024-.059.047-.117.067-.178.011-.035.02-.071.03-.107.016-.057.033-.113.047-.172.009-.038.015-.078.023-.118.011-.057.023-.114.031-.173.006-.041.01-.082.014-.123.007-.059.013-.118.017-.179,0-.041,0-.084.005-.126,0-.061,0-.123,0-.184,0-.042,0-.085,0-.128,0-.063,0-.126-.01-.19,0-.042-.007-.084-.012-.126-.007-.065-.014-.132-.024-.2-.006-.041-.012-.081-.019-.122-.012-.068-.024-.137-.038-.205q-.012-.058-.026-.117-.024-.106-.054-.212c-.01-.037-.02-.073-.031-.11-.022-.073-.045-.146-.07-.219-.012-.034-.023-.068-.035-.1-.028-.076-.057-.151-.088-.226-.013-.03-.025-.061-.038-.092q-.051-.117-.108-.233l-.038-.08c-.041-.082-.086-.162-.131-.242l-.035-.063c-.051-.087-.1-.173-.16-.258l-.025-.038c-.065-.1-.133-.192-.2-.285h0c-.1.167-.194.338-.292.523-4.2,7.9-25.821,15.479-30.366,17v0a40.436,40.436,0,0,0,3.541,4.835c3.718-2.435,5.472-3.539,7.735-4.226,15.106-4.592,16.467-6.742,20.137-13.2a2.722,2.722,0,0,0,.124-.248C430.588,629.632,430.6,629.6,430.609,629.573Z" transform="translate(-357.128 -570.819)" opacity="0.05"/>
            <path id="Path_1381" data-name="Path 1381" d="M384.823,643.16a23.939,23.939,0,0,1-2.489-.132v2a.505.505,0,0,0,.505.505h3.967a.505.505,0,0,0,.5-.505v-2A23.6,23.6,0,0,1,384.823,643.16Z" transform="translate(-348.45 -580.199)" fill="#323233"/>
            <path id="Path_1382" data-name="Path 1382" d="M386.785,643.023v1.453a.3.3,0,0,1-.3.3H383.16a.3.3,0,0,1-.3-.3v-1.449h-.527v2a.505.505,0,0,0,.505.505h3.967a.505.505,0,0,0,.5-.505v-2Z" transform="translate(-348.45 -580.199)" fill="#dbddd9"/>
            <g id="Group_696" data-name="Group 696" transform="translate(26.802)">
                <g id="Group_695" data-name="Group 695">
                    <path id="Path_1383" data-name="Path 1383" d="M372.855,533.97c-1.54-.715-4.094-3.684-4.9-9.964-.591-4.631-1.189-9.883,4.472-10.854,3.555-1.186,12.154-2.145,13.724,3.843.759,7.029-1.57,17.3-5.055,16.941-.124,2.227-3.883,1.647-4.836,1.9C373.831,536.478,372.855,533.97,372.855,533.97Z" transform="translate(-367.594 -512.267)" fill="#3f2e18"/>
                </g>
            </g>
            <path id="Path_1384" data-name="Path 1384" d="M349.243,631.376l4.607,4.282,26.292.078,4.709-4.362a2.977,2.977,0,0,0,.955-2.185H348.29A2.986,2.986,0,0,0,349.243,631.376Z" transform="translate(-330.763 -573.012)" fill="#c5c8c9"/>
            <path id="Path_1385" data-name="Path 1385" d="M348.29,629.19l6.969,5.719h24.376l6.17-5.719Z" transform="translate(-330.763 -573.012)" fill="#939699"/>
            <path id="Path_1386" data-name="Path 1386" d="M386.652,581.652c-.493-3.081-3.76-17.381-8.483-20.934-6.686-5.065-20.218-6.695-34.38-.435-4.906,2.431-7.2,18.476-7.846,21.959-1.205,6.545,8.866,8.756,10.34,9.037,2.968.566,3.855-.912,4.283-2.028.739-1.93-5.418-5.245-5.8-7.364,1.622-7.959.46-7.635.019-10.975.478,2.267-.272,3.219,1.982,7.769.439.885,1.31,12.663.833,15.606-.187,1.154,27.8,1.09,27.523-.089-.681-2.854-.136-15.284.178-16.061a29.265,29.265,0,0,0,1.592-7.509c-.3,1.906-1.357,2.189,0,10.2-1.6,1.525-5.647,7.084-4.971,9.038.39,1.129,1.7,2.831,3.411,1.412C376.632,590.2,387.713,588.286,386.652,581.652Z" transform="translate(-324.297 -535.101)" fill="#1559aa"/>
            <path id="Path_1387" data-name="Path 1387" d="M386.52,557.052a2.013,2.013,0,0,0,.612-1.759,23.8,23.8,0,0,1-.263-5.739c.332-2.234-11.4-.945-11.4-.945s-.062,4.351-.385,6.506a2.019,2.019,0,0,0,.4,1.569,7.87,7.87,0,0,0,5.461,2.492A7.458,7.458,0,0,0,386.52,557.052Z" transform="translate(-344.668 -530.955)" fill="#f4ab7a"/>
            <path id="Path_1388" data-name="Path 1388" d="M403.289,537.607h0a.909.909,0,0,1,.829.649c.252,1.179-.237,3.606-.843,4.148a3.11,3.11,0,0,1-1.3.586Z" transform="translate(-358.651 -525.432)" fill="#ffb380"/>
            <path id="Path_1389" data-name="Path 1389" d="M403.08,541.3c-.1.8-.289,1.058-.636,1.015s-.548-.724-.449-1.519.459-1.407.806-1.364S403.179,540.508,403.08,541.3Z" transform="translate(-358.651 -526.381)" opacity="0.05"/>
            <path id="Path_1390" data-name="Path 1390" d="M369.207,537.607h0a1.028,1.028,0,0,0-.914.635c-.279,1.081-.025,3.132.755,3.876a3.124,3.124,0,0,0,1.122.645Z" transform="translate(-341.098 -525.432)" fill="#ffb380"/>
            <path id="Path_1391" data-name="Path 1391" d="M370.283,541.248c.1.8.283,1.114.629,1.071s.548-.724.449-1.519-.46-1.407-.807-1.364S370.184,540.452,370.283,541.248Z" transform="translate(-342.162 -526.381)" opacity="0.05"/>
            <path id="Path_1392" data-name="Path 1392" d="M385.541,531.994c.885.425.5,4.583.5,5.595,0,.4.435.212.651.208a23.222,23.222,0,0,1-.52,5.132c-.276.957-4.44,4.085-6.9,4.085s-6.95-3.7-7.187-4.663a27.613,27.613,0,0,1-.437-4.554c.337.047.612.059.612-.232,0-.438-.612-5.7,1.858-6.837C375.759,531.9,383.789,532.448,385.541,531.994Z" transform="translate(-342.898 -521.858)" fill="#ffb380"/>
            <path id="Path_1393" data-name="Path 1393" d="M354.484,586.211a.716.716,0,0,1-.065.311l.017-.025,0,0h0c.278.047-.272,3.219,1.982,7.769a28.208,28.208,0,0,1,.591,4.664c1.274-2.559,3.475-3.571,6.728-3.975C361.81,594.659,356.42,594.264,354.484,586.211Z" transform="translate(-333.947 -550.683)" opacity="0.05"/>
            <path id="Path_1394" data-name="Path 1394" d="M408.13,593.72a29.262,29.262,0,0,0,1.592-7.509c-1.592,7.509-6.858,8.448-10.693,8.887,1.444.258,7.009,1.55,8.6,8.77A82.141,82.141,0,0,1,408.13,593.72Z" transform="translate(-357.123 -550.683)" opacity="0.05"/>
            <path id="Path_1395" data-name="Path 1395" d="M360.352,641.252h23.593a2.244,2.244,0,0,0,2.244-2.244H358.108A2.244,2.244,0,0,0,360.352,641.252Z" transform="translate(-335.864 -578.112)" fill="#c5c8c9"/>
            <path id="Path_1396" data-name="Path 1396" d="M381.553,620.321H353.49l-4.258-15.6a1.332,1.332,0,0,1,1.285-1.683h34.009a1.332,1.332,0,0,1,1.285,1.683Z" transform="translate(-331.228 -559.425)" fill="#c5c8c9"/>
            <ellipse id="Ellipse_43" data-name="Ellipse 43" cx="2.618" cy="1.371" rx="2.618" ry="1.371" transform="translate(33.536 52.537)" fill="#e6e7e8"/>
            <g id="Group_697" data-name="Group 697" transform="translate(17.818 71.256)">
                <path id="Path_1397" data-name="Path 1397" d="M365.1,660.571a6.82,6.82,0,0,1-.662.2,71.887,71.887,0,0,1-11.294,1.146c-3.793.047-4.271,1.837-4.249,2.846s2.119,3.272,3.68,3.472c4.815.615,10.611-1.583,11.765-1.7a4.186,4.186,0,0,0,3.825-2.939s-2.287.631-1.8-.5a1.827,1.827,0,0,0-1.235-2.466C365.054,660.616,365.036,660.6,365.1,660.571Z" transform="translate(-348.895 -660.571)" fill="#083b84"/>
                <path id="Path_1398" data-name="Path 1398" d="M354.115,668.637a6.766,6.766,0,0,0-.573-5.276c-.133,0-.269.007-.4.009-3.793.047-4.271,1.837-4.249,2.846s2.119,3.272,3.68,3.471c4.815.615,10.611-1.583,11.765-1.7a4.738,4.738,0,0,0,2.684-1.131C363.786,667.714,354.059,670.157,354.115,668.637Z" transform="translate(-348.895 -662.021)" fill="#dce8ef"/>
                <path id="Path_1399" data-name="Path 1399" d="M376.089,661.464h0a6.128,6.128,0,0,1,.916,3.261v.246" transform="translate(-363.023 -661.035)" fill="none" stroke="#e6e7e8" stroke-linecap="round" stroke-miterlimit="10" stroke-width="0.942"/>
                <path id="Path_1400" data-name="Path 1400" d="M372.852,661.981h0a6.129,6.129,0,0,1,.917,3.26l0,.246" transform="translate(-361.341 -661.304)" fill="none" stroke="#e6e7e8" stroke-linecap="round" stroke-miterlimit="10" stroke-width="0.942"/>
                <path id="Path_1401" data-name="Path 1401" d="M369.577,662.4h0a6.132,6.132,0,0,1,.916,3.26l0,.246" transform="translate(-359.64 -661.52)" fill="none" stroke="#e6e7e8" stroke-linecap="round" stroke-miterlimit="10" stroke-width="0.942"/>
                <path id="Path_1402" data-name="Path 1402" d="M366.8,662.715h0a6.124,6.124,0,0,1,.916,3.26v.246" transform="translate(-358.195 -661.685)" fill="none" stroke="#e6e7e8" stroke-linecap="round" stroke-miterlimit="10" stroke-width="0.942"/>
            </g>
        </g>
        <path id="Path_1403" data-name="Path 1403" d="M672.176,332.681s7.057-.945,9.155,7.37c1.617,6.409-3.64,9.624-3.276,15.2-2.891-.548-7-2.791-7.872-5.9C668.309,342.69,672.176,332.681,672.176,332.681Z" transform="translate(-527.115 -311.891)" fill="#0c2128"/>
        <path id="Path_1404" data-name="Path 1404" d="M669.291,379.344a4.353,4.353,0,0,0-4.222-3.984l-2.554-.4c-1.795-.031-3.134-2.279-2.949-3.782l.334-2.72-7.1-.872-.334,2.721c-.185,1.5-1.642,4.219-3.339,4.8l-4.464,1.538c-1.7.585-1.51,4.371-1.23,6.144l17.668,4.2,10.234,21.182,3.415.257-4.909-10.377Z" transform="translate(-513.39 -330.042)" fill="#c68958"/>
        <path id="Path_1405" data-name="Path 1405" d="M662.425,371.626l.338-4.041,7.1.872-.334,2.72a2.477,2.477,0,0,0-.012.38c0,.03,0,.061.005.091a3.178,3.178,0,0,0,.049.383l0,.012a3.711,3.711,0,0,0,.118.442l.008.024a4.064,4.064,0,0,0,.174.436h0a3.179,3.179,0,0,0,2.606,2.013C669.029,377.624,664.226,373.85,662.425,371.626Z" transform="translate(-523.35 -330.042)" fill="#231f20" opacity="0.1"/>
        <g id="Group_699" data-name="Group 699" transform="translate(141.794 75.086)">
            <path id="Path_1406" data-name="Path 1406" d="M668.085,455.523l7.1.3c6.1-1.187,14.2-4.589,16.175-5.932l-17.814-4.171Z" transform="translate(-668.085 -445.723)" fill="#010326"/>
        </g>
        <path id="Path_1407" data-name="Path 1407" d="M662.125,439.488c8.908-2.463,26.035-1.735,26.035-1.735s3.534-.988,6.442,4.952c1.843,3.765,10.314,19.4,15.157,25.985,0,0,6.354,6.885,6.963,7.506a.208.208,0,0,0,.157.062l2.144-.056a.915.915,0,0,1,.206,1.812l-2.027.413a2.752,2.752,0,0,1-2.3-.572l-1.762-1.451a8.271,8.271,0,0,0-6.188-1.833,1.989,1.989,0,0,1-1.3-1.483,3.825,3.825,0,0,1,.216-2.231c.111-.267.513-.656-1.056-2.614-5.735-7.154-9.46-6.5-13.6-13.066-1.7-2.693-4.65-6.585-3.951-8.947,0,0-10.222,7.082-22.264,6.755-3.4-.092-6.513-1.189-7.212-2.268q-.147-.227-.276-.452A7.44,7.44,0,0,1,662.125,439.488Z" transform="translate(-520.303 -366.444)" fill="#c68958"/>
        <g id="Group_700" data-name="Group 700" transform="translate(185.273 104.351)">
            <path id="Path_1408" data-name="Path 1408" d="M758.871,506.693h0a3.826,3.826,0,0,0-.216,2.231h0a1.989,1.989,0,0,0,1.3,1.483h0c3.643-.532,7.02,4.626,7.02,4.626a2.749,2.749,0,0,0,2.3.572l3.417-.767c.5-.1.355-1.571.254-2.066h0a.914.914,0,0,0-.921-.732l-2.144.056a.207.207,0,0,1-.157-.062C766.511,513.744,761.838,505.85,758.871,506.693Z" transform="translate(-758.578 -506.63)" fill="#135699"/>
        </g>
        <path id="Path_1409" data-name="Path 1409" d="M652.152,410.973s-7.913-25.767-6.216-26.352l4.464-1.538c.655-.226,4.735,7.357,12.486,6.793,4.653-.258.3-6.954.9-6.943l2.554.4c1.883,4.765,3.161,7.4,3.908,9.88a8.944,8.944,0,0,1-.127,5.552l-2.027,7.05,2.279,3.532c6.5-.262,12.146-.024,12.146-.024s3.534-.988,6.442,4.952c-11.673,5.679-9.673,20.283-25.758,21.639-4.112-9.179-8.817-9.872-11.332-14.079C648.716,416.406,652.152,410.973,652.152,410.973Z" transform="translate(-514.66 -338.016)" fill="#fcd765"/>
        <path id="Path_1410" data-name="Path 1410" d="M664.837,405.54s-3.468-.49-3.6-.478l-13.981,1.854-.653-15.258c-.071-2.768-1.9-5.295-3.784-5.214a3.388,3.388,0,0,0-3.124,3.613,59.931,59.931,0,0,0,4.318,20.466,1.877,1.877,0,0,0,2.11,1.486l15.375-4.027c.5-.045,1.206.583,1.414.942.308.534.834.477,1.218.681,0,0,5.467.188,5.343-.716S666.159,405.87,664.837,405.54Z" transform="translate(-511.54 -339.839)" fill="#bc7d51"/>
        <path id="Path_1411" data-name="Path 1411" d="M641.943,385.884c1.887,0,3.687,1.5,4.593,5.275l.433,4.054-7.9,1.722a26.379,26.379,0,0,1-.519-7.115C638.7,387.94,639.411,385.883,641.943,385.884Z" transform="translate(-510.906 -339.549)" fill="#fcd765"/>
        <path id="Path_1412" data-name="Path 1412" d="M688.155,390.612l-2.37-7.3,1.38.216c3.554-.675,4.6,1.9,4.813,4.481l.275,2.6Z" transform="translate(-535.487 -338.215)" fill="#fcd765"/>
        <g id="Group_701" data-name="Group 701" transform="translate(150.87 61.113)">
            <path id="Path_1413" data-name="Path 1413" d="M705.315,416.641H692.794a.788.788,0,0,0-.725.48l-5.018,9.822a.7.7,0,0,0,.1.782L706.181,417.5l-.137-.36A.78.78,0,0,0,705.315,416.641Z" transform="translate(-686.974 -416.641)" fill="#fff"/>
            <path id="Path_1414" data-name="Path 1414" d="M705.712,417.153H693.187a.662.662,0,0,0-.611.407l-2.455,4.889-2.783,5.542H701.3l5.025-9.921A.662.662,0,0,0,705.712,417.153Z" transform="translate(-687.163 -416.907)" fill="#c5c8c9"/>
            <path id="Path_1415" data-name="Path 1415" d="M707.826,427.86a.434.434,0,0,0-.367-.2H694.387a.375.375,0,0,0-.319.573l3.108,5.012a.435.435,0,0,0,.369.206h13.035a.435.435,0,0,0,.367-.668Z" transform="translate(-690.63 -422.365)" fill="#3c3c3b"/>
        </g>
        <path id="Path_1416" data-name="Path 1416" d="M674.946,347.53c-.516,1.376.676,3.8.194,5.11a28.771,28.771,0,0,1-3.117,5.157,2.868,2.868,0,0,1-2.106,1.279h0a2.808,2.808,0,0,1-1.524-.468l-5.549-3.683,1.311-12.783,9.326-.065,1.042,1.276a3.525,3.525,0,0,1,.695,3.068Z" transform="translate(-523.568 -316.79)" fill="#c68958"/>
        <path id="Path_1417" data-name="Path 1417" d="M665.127,336.886a12.412,12.412,0,0,0-7.919,4.127c-.779.906-1.463,3.454-3.259,4.422-.737,4.351.46,5.92,2.153,10.339-3.679-.949-10.212-4.112-11.135-10.1s1.331-11.192,4.6-13.629,7.148-3.109,10.512-1.649S665.522,334.5,665.127,336.886Z" transform="translate(-514.173 -310.322)" fill="#102a35"/>
        <path id="Path_1418" data-name="Path 1418" d="M663.4,356.987a1.742,1.742,0,0,0-1.157-1.3,1.335,1.335,0,0,0-.9.033c-1.036.41-.615,3.634.94,3.975C663.433,359.943,663.642,358.032,663.4,356.987Z" transform="translate(-522.496 -323.826)" fill="#c68958"/>
        <path id="Path_1419" data-name="Path 1419" d="M662.452,363.716a.563.563,0,1,0,.71-.361A.564.564,0,0,0,662.452,363.716Z" transform="translate(-523.35 -327.83)" fill="#fff"/>
        <path id="Path_1420" data-name="Path 1420" d="M721.84,542.118c.993.59,2.457,2.534,1.11,3.894-1.859.52-5.152-.886-5.534-1.712s-1.85-7.371-1.85-7.371H719.8Z" transform="translate(-550.959 -418.021)" fill="#135699"/>
        <path id="Path_1421" data-name="Path 1421" d="M718.85,456.615s5.023-.182,3.362,7.209c-.3,1.348-.161,4.87-.644,9.718-.64,6.421-3.776,14.79-2.427,21.914l1.687,4.937s.026.692-1.861.751-1.9-1.8-2.5-3.641-1.779-3.4-1.909-5.114c0,0,.992-.96.462-5.382-.563-4.7-.836-5.6-1.35-12.106-.318-4.021,1.045-7.213.578-11.83A42.508,42.508,0,0,1,718.85,456.615Z" transform="translate(-549.947 -376.295)" fill="#bc7d53"/>
        <g id="Group_707" data-name="Group 707" transform="translate(29.66 0)">
            <path id="Path_1422" data-name="Path 1422" d="M465.535,219.776c.571-1.936,1.787-5.43,5.331-5.268,4.309-2.83,9.837-.3,11.85,2.824,6.277,9.734-3.314,36.015-4.817,37.343-1.984,1.754-6.347-20.972-6.347-20.972A11.575,11.575,0,0,1,465.535,219.776Z" transform="translate(-458.873 -213.279)" fill="#c74c2b"/>
            <path id="Path_1423" data-name="Path 1423" d="M478.43,226.183c3.051-2.556,8.172-.607,9.352,2.59,1.864,5.05-.089,14.184-1.058,19.179C485.258,255.517,479.662,231,478.43,226.183Z" transform="translate(-465.836 -219.372)" fill="#231f20" opacity="0.1" style="mix-blend-mode: multiply;isolation: isolate"/>
            <rect id="Rectangle_143" data-name="Rectangle 143" width="19.958" height="7.059" transform="translate(6.33 57.567)" fill="#86cfef"/>
            <path id="Path_1424" data-name="Path 1424" d="M470.816,261.668l2.4.609a23.687,23.687,0,0,1,6.431,2.407,7.341,7.341,0,0,1,3.7,5.592c.615,5.682.464,13.934-1.492,18.756h0l-6.336,7.091-4.872,2.89s-11.35-8.818-15.15-11.9-3.589-9.089-2.857-14.213,2.361-9.052,9.172-10.955c.311-.087.613-.159.9-.213l2.08-.392Z" transform="translate(-452.218 -238.249)" fill="#5ca2d5"/>
            <path id="Path_1425" data-name="Path 1425" d="M467.589,274.958s.41,8.393-1.325,12.035,1.755,3.213,1.755,3.213S468.878,277.951,467.589,274.958Z" transform="translate(-459.263 -245.323)" fill="#231f20" opacity="0.05" style="mix-blend-mode: multiply;isolation: isolate"/>
            <path id="Path_1426" data-name="Path 1426" d="M501.628,291.965s-1-7.393-.513-11.177a7.63,7.63,0,0,1,2.774-5.313,31.678,31.678,0,0,0-1.568,5.508C501.947,283.429,501.628,291.965,501.628,291.965Z" transform="translate(-477.551 -245.592)" fill="#231f20" opacity="0.05" style="mix-blend-mode: multiply;isolation: isolate"/>
            <path id="Path_1427" data-name="Path 1427" d="M510.436,296.829" transform="translate(-482.464 -256.686)" fill="#dc6c5c"/>
            <path id="Path_1428" data-name="Path 1428" d="M476.206,335.911h-7.985a8.224,8.224,0,0,1-8.2-7.652l-.96-13.777,8.8.806,4.288,12.611,5.37-15.068,8.254-.109L484.4,328.4A8.224,8.224,0,0,1,476.206,335.911Z" transform="translate(-455.771 -264.943)" fill="#86cfef"/>
            <g id="Group_703" data-name="Group 703" transform="translate(8.641 43.385)">
                <g id="Group_702" data-name="Group 702" transform="translate(0 29.208)">
                    <path id="Path_1429" data-name="Path 1429" d="M472.569,391.542h0a2.7,2.7,0,0,0,3.071-1.809l1.169-6.269c.485-1.479.479-2.809-1-3.294h0c-1.479-.485-2.271.583-2.756,2.063l-2.7,5.541A2.913,2.913,0,0,0,472.569,391.542Z" transform="translate(-470.203 -372.515)" fill="#8845a0"/>
                    <path id="Path_1430" data-name="Path 1430" d="M472.259,378.962,475.3,372.4l1.747-8.035,4.393,1.44-3.5,7.97-1.353,6.831Z" transform="translate(-471.271 -364.366)" fill="#f2c99e"/>
                    <path id="Path_1431" data-name="Path 1431" d="M472.259,378.962,475.3,372.4l1.747-8.035,4.393,1.44-3.5,7.97-1.353,6.831Z" transform="translate(-471.271 -364.366)" fill="#8b5e3c" opacity="0.1"/>
                </g>
                <path id="Path_1432" data-name="Path 1432" d="M486.608,334.224,497.58,309.73a4.691,4.691,0,0,0-3-5.919h0a4.691,4.691,0,0,0-6.048,3.473l-6.32,25.5Z" transform="translate(-476.443 -303.576)" fill="#a4dfff"/>
                <path id="Path_1433" data-name="Path 1433" d="M483.932,350.982l3.1,1.016,1.477-3.3-2.7-10.914-2.772,11.185Z" transform="translate(-476.868 -321.35)" opacity="0.07"/>
            </g>
            <g id="Group_705" data-name="Group 705" transform="translate(3.051 43.385)">
                <g id="Group_704" data-name="Group 704" transform="translate(11.206 29.208)">
                    <path id="Path_1434" data-name="Path 1434" d="M493.23,391.542h0a2.7,2.7,0,0,1-3.07-1.809l-1.169-6.269c-.485-1.479-.479-2.809,1-3.294h0c1.479-.485,2.271.583,2.756,2.063l2.7,5.541A2.913,2.913,0,0,1,493.23,391.542Z" transform="translate(-485.431 -372.515)" fill="#8845a0"/>
                    <path id="Path_1435" data-name="Path 1435" d="M491.069,378.962l-3.037-6.562-1.747-8.035-4.393,1.44,3.5,7.97,1.353,6.831Z" transform="translate(-481.893 -364.366)" fill="#f2c99e"/>
                </g>
                <path id="Path_1436" data-name="Path 1436" d="M469.775,334.224,458.8,309.73a4.692,4.692,0,0,1,3-5.919h0a4.692,4.692,0,0,1,6.048,3.473l6.32,25.5Z" transform="translate(-458.569 -303.576)" fill="#a4dfff"/>
            </g>
            <path id="Path_1437" data-name="Path 1437" d="M483.369,257.051a1.611,1.611,0,0,1-.616,2.761,15.915,15.915,0,0,1-4.1.419,11.408,11.408,0,0,1-4.933-.82,1.61,1.61,0,0,1-.285-2.7,3.426,3.426,0,0,0,1.34-2.246l.587-3.977,6.1-.206.882,4.882A3.426,3.426,0,0,0,483.369,257.051Z" transform="translate(-462.923 -232.503)" fill="#f2c99e"/>
            <path id="Path_1438" data-name="Path 1438" d="M481.932,257.121a8.374,8.374,0,0,0,2.793-1.381,3.4,3.4,0,0,1-.164-.578l-.882-4.882-6.1.206-.486,3.293a9.062,9.062,0,0,0,3.079,2.965c.171.092.429.207.663.307A1.662,1.662,0,0,0,481.932,257.121Z" transform="translate(-465.141 -232.503)" fill="#8b5e3c" opacity="0.1"/>
            <path id="Path_1439" data-name="Path 1439" d="M465.535,221.1c.571-1.936,1.787-5.43,5.331-5.268,1,3.516.686,19.195.686,19.195A11.575,11.575,0,0,1,465.535,221.1Z" transform="translate(-458.873 -214.602)" fill="#231f20" opacity="0.1" style="mix-blend-mode: multiply;isolation: isolate"/>
            <path id="Path_1440" data-name="Path 1440" d="M477.937,243.641h0a1.658,1.658,0,0,1-1.1-.07c-.234-.1-.492-.215-.664-.307a10.234,10.234,0,0,1-4.337-5.492,4.5,4.5,0,0,1-.177-2.08l.273-1.9c-.086-1.026-.5-2.333.175-3.114l2.778-3.223,5.863,5.149c.4.288,3.445,3.831,2.991,5.282l-.058.184A8.386,8.386,0,0,1,477.937,243.641Z" transform="translate(-462.295 -220.644)" fill="#f2c99e"/>
            <g id="Group_706" data-name="Group 706" transform="translate(11.107 23.908)">
                <path id="Rectangle_144" data-name="Rectangle 144" d="M.741,0H5.194a.74.74,0,0,1,.74.74V10a.74.74,0,0,1-.74.74H.74A.74.74,0,0,1,0,10V.741A.741.741,0,0,1,.741,0Z" fill="#fff"/>
                <rect id="Rectangle_145" data-name="Rectangle 145" width="5.934" height="10.745" rx="0.74" transform="translate(0 0.842)" fill="#3c3c3b"/>
                <path id="Path_1441" data-name="Path 1441" d="M477.6,266.763a.436.436,0,1,1-.436-.436A.436.436,0,0,1,477.6,266.763Z" transform="translate(-476.059 -264.747)" fill="#bcbec0"/>
            </g>
            <path id="Path_1442" data-name="Path 1442" d="M493.183,286.82l-10.766-6.862-.464-4.061a1.907,1.907,0,0,0-1.4-1.625l-5.515-1.491a.5.5,0,0,0-.63.539l.211,1.926a5.735,5.735,0,0,0,1.742,3.526L493.272,294.9h0a5.789,5.789,0,0,0,.2-7.749Z" transform="translate(-463.746 -244.183)" fill="#f2c99e"/>
            <path id="Path_1443" data-name="Path 1443" d="M458.405,303.49s12.217,5.8,16.186,5.663,5.241-.768,5.241-.768l1.742,1.582a1.808,1.808,0,0,1,.405,2.139l-.405.82a2.669,2.669,0,0,1-3.453,1.267l-3.431-1.485s-17.02-3.065-19.29-4.423-2.682-5.5-2.682-5.5A12.366,12.366,0,0,1,458.405,303.49Z" transform="translate(-452.478 -259.736)" fill="#f2c99e"/>
        </g>
        <g id="Group_711" data-name="Group 711" transform="translate(83.586 143.006)">
            <path id="Path_1444" data-name="Path 1444" d="M638.354,647.109c11.131-2,15.4,9.268,10.341,12.871s-17.252,7.614-17.252,7.614-4.246,1.916-4.608-1.531c-.267-2.544-.179-3.838,5.686-9.09C635.857,653.986,635.074,648.115,638.354,647.109Z" transform="translate(-588.406 -618.146)" fill="#2d2d2b"/>
            <path id="Path_1445" data-name="Path 1445" d="M569.138,602.453c2.155-5.135-.493-18.531-11.967-14.686-6.7.491-15.612,7.887-4.351,33.481.555,1.262,1.043,10.729-5.881,9.9,6.126,2.578,14.322.54,16.737-3.136C568.663,620.424,565.163,604.957,569.138,602.453Z" transform="translate(-546.938 -587.083)" fill="#473522"/>
            <path id="Path_1446" data-name="Path 1446" d="M580.2,602.453c-1.1.691-1.623,2.372-1.917,4.6L569.853,593.5l-1.618-5.73C579.709,583.922,582.357,597.318,580.2,602.453Z" transform="translate(-558.002 -587.083)" opacity="0.1"/>
            <path id="Path_1447" data-name="Path 1447" d="M569.436,639.423,562.528,656l3.03,2.152,9.361-13.761Z" transform="translate(-555.038 -614.276)" fill="#eab38b"/>
            <path id="Path_1448" data-name="Path 1448" d="M563.3,646.373c.731-1.545,1.371-20.427,1.371-20.427l1.819-2.138-6.726-5.39-.676,3.678a1.372,1.372,0,0,0,.185.975l1.657,2.656s-2.771,12.412-3.643,15.65c-.782,2.9,1.09,7.339,2.006,7.89S562.569,647.917,563.3,646.373Z" transform="translate(-552.219 -603.362)" fill="#f4c095"/>
            <path id="Path_1449" data-name="Path 1449" d="M562.283,620.946l.171-2.529,6.726,5.39-1.819,2.138a37.24,37.24,0,0,1-4.539-3.437A2.1,2.1,0,0,1,562.283,620.946Z" transform="translate(-554.907 -603.362)" fill="#eab38b"/>
            <path id="Path_1450" data-name="Path 1450" d="M576.7,624.683a16.984,16.984,0,0,1,5.2-4.264c.346-.6,6.455-4.083,6.911-4.463,0,0,8.573-5.919,12.313,3.872l-.764.92s2.174,10.017,10.83,9.378c-1.368,4.673-7.607,15.842-11.126,14.319l-3.922-3.059-7.4-1.986-1.337-.236a7.271,7.271,0,0,1-5.7-5.076l-.443-1.481c.166.4-6.795-4.05-6.795-4.05A11.757,11.757,0,0,1,576.7,624.683Z" transform="translate(-561.238 -601.163)" fill="#da4a46"/>
            <g id="Group_709" data-name="Group 709" transform="translate(12.393 42.771)">
                <path id="Path_1451" data-name="Path 1451" d="M591.681,683.184l2.274-4.709.032.708a1.46,1.46,0,0,1-.1.6l-1.374,4.3a.66.66,0,0,1-.673.466l-18.3-.777a.812.812,0,0,1-.765-.76l-.035-.778Z" transform="translate(-572.734 -677.335)" fill="#c5c8c9"/>
                <path id="Path_1452" data-name="Path 1452" d="M573.24,681.465l18.589.788a.312.312,0,0,0,.311-.2l1.789-4.744a.378.378,0,0,0-.342-.492l-16.809-.713a.443.443,0,0,0-.366.159l-3.58,4.395A.515.515,0,0,0,573.24,681.465Z" transform="translate(-572.731 -676.103)" fill="#3c3c3b"/>
                <path id="Path_1453" data-name="Path 1453" d="M575.426,681.162l3.314-4.068,15.452.655-1.562,4.142Z" transform="translate(-574.131 -676.618)" fill="#fff"/>
                <g id="Group_708" data-name="Group 708" transform="translate(1.81 0.933)" opacity="0.1">
                    <path id="Path_1454" data-name="Path 1454" d="M581.068,678.044l13.945.591-.229.555-14.16-.6Z" transform="translate(-578.642 -678.044)"/>
                    <path id="Path_1455" data-name="Path 1455" d="M593.43,684.343l-16.931-.718.465-.571,16.685.708Z" transform="translate(-576.499 -680.647)"/>
                    <path id="Path_1456" data-name="Path 1456" d="M586.1,681.279l-7.548-.32.58-.712,7.484.317Z" transform="translate(-577.563 -679.188)"/>
                </g>
            </g>
            <g id="Group_710" data-name="Group 710" transform="translate(37.587 34.543)">
                <path id="Path_1457" data-name="Path 1457" d="M703.524,670.988s.2-1.107,2.384-1.541c1.38-.274,7.144,1.6,10.755,2.4,1.461.323,2.718,2.355,2.84,2.991.117.609-1.081,3.188-5.188,2.26a84.761,84.761,0,0,1-10.637-3.662Z" transform="translate(-665.875 -664.403)" fill="#a05275"/>
                <path id="Path_1458" data-name="Path 1458" d="M705.393,670.369c1.756-.3,1.265.153,7.343,1.635,2.84.692,3.161,4.92.2,4.365-5.182-.97-4.66-1.666-6.916-2.122C704.28,672.215,703.034,670.774,705.393,670.369Z" transform="translate(-666.171 -664.85)" fill="#f4c095"/>
                <path id="Path_1459" data-name="Path 1459" d="M667.161,674.372a2.026,2.026,0,0,0,1.189-2.334,2.933,2.933,0,0,0-1.6-2.519s-21.652,1.07-31.357,2.923c-10.552,2.015-8.479,5.581-8.089,6.913s3.975,2.627,14.013,1.06C650.33,679.009,652.246,676.778,667.161,674.372Z" transform="translate(-626.058 -664.454)" fill="#3c3c3b"/>
                <path id="Path_1460" data-name="Path 1460" d="M667.669,669.488c.954.24,1.45,1.747,1.45,1.747a2.183,2.183,0,0,0-1.471-.906c-7.013,1.155-23.045,6.209-31.067,6.4-4.265.1-6.632-.453-7.933-1.249,1.04-1.111,3.24-2.228,7.664-3.073C646.017,670.558,666.715,669.247,667.669,669.488Z" transform="translate(-626.975 -664.423)" fill="#2d2d2b"/>
                <path id="Path_1461" data-name="Path 1461" d="M706.687,661.027a3.7,3.7,0,0,1,2.8-2.026c1.38-.274,8.247,1.915,10.344,2.885,2.1,1.45,2.705,3.282,2.656,3.965-.044.618-.9,2.214-5,1.286a84.8,84.8,0,0,1-10.637-3.662Z" transform="translate(-667.519 -658.978)" fill="#a05275"/>
                <path id="Path_1462" data-name="Path 1462" d="M707.951,660.928c1.756-.3,1.265.154,7.344,1.635,2.84.692,3.161,4.919.2,4.364-5.182-.969-4.667-1.954-7.793-1.49C705.443,664.342,705.591,661.334,707.951,660.928Z" transform="translate(-667.209 -659.945)" fill="#f4c095"/>
                <path id="Path_1463" data-name="Path 1463" d="M665.477,660.8a2.236,2.236,0,0,1,1.073,2.206,4.72,4.72,0,0,1-.663,2.214s-21.38,5.578-31.258,5.818c-10.74.26-9.467-3.663-9.367-5.048s3.126-4.811,13.268-5.4C647.635,660.063,650.353,661.836,665.477,660.8Z" transform="translate(-625.166 -659.764)" fill="#3c3c3b"/>
            </g>
            <path id="Path_1464" data-name="Path 1464" d="M623.057,627.846a43.617,43.617,0,0,1,8.961,15.068c.586,1.8-4.092,2.172-5.691.243-2.5-3.024-8.17-9.871-8.17-9.871Z" transform="translate(-583.938 -608.261)" fill="#f4c095"/>
            <path id="Path_1465" data-name="Path 1465" d="M630.143,652.207a8.506,8.506,0,0,1,4.372.408,3.62,3.62,0,0,1,2.177,1.771c.367.891-.626,1.808-1.91,2.575-.019.012-.04.021-.059.032a4.062,4.062,0,0,1-2.614-1.24l-2.823-3.41Z" transform="translate(-589.72 -620.857)" fill="#eab38b"/>
            <path id="Path_1466" data-name="Path 1466" d="M580.961,620.37l2.122-5.344s2.3,3.475,9.1,1.368c0,0-.607,13.722-4.669,14.7C584.988,631.71,580.961,620.37,580.961,620.37Z" transform="translate(-564.614 -601.6)" fill="#f4c095"/>
            <path id="Path_1467" data-name="Path 1467" d="M581.78,623.255c-.506-1.257-.819-2.139-.819-2.139l1-2.525,1.8-2.129a6.278,6.278,0,0,0,3.051,1.254c.017,2.305-.3,7.027-2.854,10.323-.457-.862-.892-1.78-1.282-2.659A3.17,3.17,0,0,0,581.78,623.255Z" transform="translate(-564.614 -602.347)" fill="#eab38b"/>
            <path id="Path_1468" data-name="Path 1468" d="M587.681,608.451c.025,1.33-.693,3.078-1.19,3.087s-.92-1.061-.945-2.391.358-2.416.854-2.425S587.656,607.121,587.681,608.451Z" transform="translate(-566.995 -597.285)" fill="#f4c095"/>
            <path id="Path_1469" data-name="Path 1469" d="M571.567,617.457c4.911-3.336,4.462-7.969,2.393-11.589-3.76,1.951-1.761-5.252-7.467-5.434-1.855,6.138-5.22,8.253-4.663,10.032.082.245,1.236.658,1.555,1.409.529,1.244.916,2.645,2.546,3.548C568.29,616.73,570.358,618.022,571.567,617.457Z" transform="translate(-554.643 -594.02)" fill="#f4c095"/>
            <path id="Path_1470" data-name="Path 1470" d="M623.607,656.726c.367.891-.626,1.808-1.91,2.575a12.025,12.025,0,0,1-7.2,1.591l-12.066-1.04-.461-2.922,15.09-2.383a8.508,8.508,0,0,1,4.372.408A3.621,3.621,0,0,1,623.607,656.726Z" transform="translate(-575.528 -622.073)" fill="#f4c095"/>
            <path id="Path_1471" data-name="Path 1471" d="M597.232,674.989a1.8,1.8,0,0,0,1.222-1.14c.078-.213.161-.431.232-.59.2-.441-1.589-.135-1.67.119-.03.094-.072,1.682.206,1.615Z" transform="translate(-572.943 -631.738)" fill="#eab38b"/>
            <path id="Path_1472" data-name="Path 1472" d="M587.86,666.369l2.09-3.243,4.276-3.493a2.661,2.661,0,0,1,.851,3.485,7.511,7.511,0,0,1-2.3,2.683l-.261,1.707a.646.646,0,0,1-.454.521l-1.78.528a.828.828,0,0,1-.785-.69l-.1-1.571c-.222.224-.662.8-.662.8s-.175.081-.466,1.527-1.21,1.132-1.21,1.132Z" transform="translate(-567.785 -624.775)" fill="#f4c095"/>
        </g>
    </g>
</svg>
