<svg xmlns="http://www.w3.org/2000/svg" width="175.864" height="169.975" viewBox="0 0 175.864 169.975">
    <g id="Group_735" data-name="Group 735" transform="translate(-46.499 -587.692)">
        <g id="Group_716" data-name="Group 716" transform="translate(80.609 587.692)">
            <g id="Group_715" data-name="Group 715" transform="translate(0)">
                <g id="Group_714" data-name="Group 714">
                    <path id="Path_1482" data-name="Path 1482" d="M415.56,274.9H357.921a8.692,8.692,0,0,0-8.666,8.668V424.414a8.692,8.692,0,0,0,8.666,8.667H415.56a8.69,8.69,0,0,0,8.664-8.667V283.565A8.69,8.69,0,0,0,415.56,274.9Z" transform="translate(-348.605 -274.247)" fill="#2d2d2d"/>
                    <path id="Path_1483" data-name="Path 1483" d="M413.646,431.819H356.006a9.326,9.326,0,0,1-9.316-9.317V281.653a9.327,9.327,0,0,1,9.316-9.318h57.639a9.328,9.328,0,0,1,9.318,9.318V422.5A9.328,9.328,0,0,1,413.646,431.819ZM356.006,273.635a8.026,8.026,0,0,0-8.016,8.018V422.5a8.027,8.027,0,0,0,8.016,8.019h57.639a8.027,8.027,0,0,0,8.015-8.019V281.653a8.026,8.026,0,0,0-8.015-8.018Z" transform="translate(-346.69 -272.335)" fill="#787878"/>
                </g>
            </g>
            <path id="Path_1484" data-name="Path 1484" d="M488.929,313.557c0,.507-.629.922-1.4.922H473.649c-.776,0-1.405-.415-1.405-.922h0c0-.509.63-.921,1.405-.921h13.874c.776,0,1.4.413,1.4.921Z" transform="translate(-440.411 -302.418)" fill="#6e6e6e"/>
            <path id="Path_1485" data-name="Path 1485" d="M454.126,311.858a1.5,1.5,0,1,1-1.5-1.5A1.5,1.5,0,0,1,454.126,311.858Z" transform="translate(-424.649 -300.719)" fill="#6e6e6e"/>
            <path id="Path_1486" data-name="Path 1486" d="M427.111,344.45H367.442a4.077,4.077,0,0,0-4.072,4.073V462.084a4.079,4.079,0,0,0,4.072,4.074h59.669a4.079,4.079,0,0,0,4.072-4.074V348.523A4.077,4.077,0,0,0,427.111,344.45Z" transform="translate(-359.141 -326.166)" fill="#d2f6fc"/>
            <path id="Path_1487" data-name="Path 1487" d="M424.523,341.139H364.915a4.979,4.979,0,0,0-4.972,4.972V459.556a4.979,4.979,0,0,0,4.972,4.972h59.608a4.98,4.98,0,0,0,4.972-4.972V346.111A4.98,4.98,0,0,0,424.523,341.139Zm4.066,106.428v11.988a4.072,4.072,0,0,1-4.066,4.067H364.915a4.071,4.071,0,0,1-4.066-4.067V346.111a4.071,4.071,0,0,1,4.066-4.068h59.608a4.071,4.071,0,0,1,4.066,4.068Z" transform="translate(-356.583 -323.694)" fill="#787878"/>
        </g>
        <g id="Group_717" data-name="Group 717" transform="translate(90.305 614.804)">
            <rect id="Rectangle_173" data-name="Rectangle 173" width="19.063" height="19.434" fill="#2d2d2d"/>
            <rect id="Rectangle_174" data-name="Rectangle 174" width="19.063" height="19.433" transform="translate(0 38.119)" fill="#2d2d2d"/>
            <rect id="Rectangle_175" data-name="Rectangle 175" width="19.064" height="19.434" transform="translate(37.549)" fill="#2d2d2d"/>
            <path id="Path_1488" data-name="Path 1488" d="M467.925,533.9h2.695v2.986H465.1v-5.8h-5.59v2.68h2.788v3.115h-8.048v2.681h7.912v2.688h4.791v-2.688h5.512v-2.288h2.951v-6.06h-7.486Z" transform="translate(-437.862 -503.653)" fill="#2d2d2d"/>
            <rect id="Rectangle_176" data-name="Rectangle 176" width="5.596" height="2.68" transform="translate(46.431 43.922)" fill="#2d2d2d"/>
            <path id="Path_1489" data-name="Path 1489" d="M485.014,443.45H487.7v-4.206h5.49v-2.688H487.7v-2.994h-5.611v2.687h2.923Z" transform="translate(-457.874 -433.563)" fill="#2d2d2d"/>
            <rect id="Rectangle_177" data-name="Rectangle 177" width="2.688" height="8.148" transform="translate(21.643 13.809)" fill="#2d2d2d"/>
            <path id="Path_1490" data-name="Path 1490" d="M422.223,520.426v-2.68H419.65v-2.531h-2.68v2.531h-2.609v-2.609h-2.738v-2.616h-5.169v2.695h2.751v2.6h2.7v2.609Z" transform="translate(-403.517 -490.306)" fill="#2d2d2d"/>
            <path id="Path_1491" data-name="Path 1491" d="M409.036,540.619v2.6h-2.581v2.709h10.322v-2.709h-5.054v-2.6Z" transform="translate(-403.517 -510.499)" fill="#2d2d2d"/>
            <rect id="Rectangle_178" data-name="Rectangle 178" width="2.695" height="5.211" transform="translate(0 27.511)" fill="#2d2d2d"/>
            <rect id="Rectangle_179" data-name="Rectangle 179" width="2.808" height="2.802" transform="translate(32.694 16.704)" fill="#2d2d2d"/>
            <rect id="Rectangle_180" data-name="Rectangle 180" width="2.809" height="2.795" transform="translate(24.602 22.164)" fill="#2d2d2d"/>
            <rect id="Rectangle_181" data-name="Rectangle 181" width="2.809" height="2.795" transform="translate(16.654 22.164)" fill="#2d2d2d"/>
            <rect id="Rectangle_182" data-name="Rectangle 182" width="2.808" height="2.801" transform="translate(32.694 46.068)" fill="#2d2d2d"/>
            <rect id="Rectangle_183" data-name="Rectangle 183" width="2.795" height="2.794" transform="translate(34.968 35.873)" fill="#2d2d2d"/>
            <rect id="Rectangle_184" data-name="Rectangle 184" width="2.816" height="2.802" transform="translate(27.154 46.445)" fill="#2d2d2d"/>
            <rect id="Rectangle_185" data-name="Rectangle 185" width="2.809" height="2.802" transform="translate(37.563 43.857)" fill="#2d2d2d"/>
            <rect id="Rectangle_186" data-name="Rectangle 186" width="2.809" height="2.794" transform="translate(53.945 54.758)" fill="#2d2d2d"/>
            <rect id="Rectangle_187" data-name="Rectangle 187" width="2.801" height="2.795" transform="translate(30 22.164)" fill="#2d2d2d"/>
            <rect id="Rectangle_188" data-name="Rectangle 188" width="2.809" height="2.794" transform="translate(40.6 30.07)" fill="#2d2d2d"/>
            <rect id="Rectangle_189" data-name="Rectangle 189" width="2.809" height="2.808" transform="translate(53.877 30.462)" fill="#2d2d2d"/>
            <rect id="Rectangle_190" data-name="Rectangle 190" width="2.809" height="2.816" transform="translate(21.58 8.669)" fill="#2d2d2d"/>
            <path id="Path_1492" data-name="Path 1492" d="M502.87,472.052v5.454h2.689v-2.773h3.022v-2.68Z" transform="translate(-472.807 -461.223)" fill="#2d2d2d"/>
            <path id="Path_1493" data-name="Path 1493" d="M532.436,514.794h3.043v-2.681h-5.724v5.468h2.68Z" transform="translate(-492.128 -490.014)" fill="#2d2d2d"/>
            <path id="Path_1494" data-name="Path 1494" d="M564.184,610.532v-2.688H551.245v8.519h2.694v-5.831Z" transform="translate(-507.572 -558.812)" fill="#2d2d2d"/>
            <path id="Path_1495" data-name="Path 1495" d="M574.029,521.363h-2.687v2.794h-3.123v2.681h5.81Z" transform="translate(-519.77 -496.661)" fill="#2d2d2d"/>
            <path id="Path_1496" data-name="Path 1496" d="M567.8,621.433H565v2.559h5.489v-5.532H567.8Z" transform="translate(-517.458 -566.441)" fill="#2d2d2d"/>
            <rect id="Rectangle_191" data-name="Rectangle 191" width="2.851" height="5.46" transform="translate(54.032 41.184)" fill="#2d2d2d"/>
            <path id="Path_1497" data-name="Path 1497" d="M544.174,555.387h1.875v-2.773h2.609v5.425h2.68v-5.461h-2.253V549.92h-5.717v3.137h-2.845v5.475h3.65Z" transform="translate(-499.867 -517.184)" fill="#2d2d2d"/>
            <rect id="Rectangle_192" data-name="Rectangle 192" width="2.808" height="5.596" transform="translate(24.083 40.528)" fill="#2d2d2d"/>
            <path id="Path_1498" data-name="Path 1498" d="M484.421,612.608h-2.808v7.178h2.808v-2.445h5.319v-2.68h-5.319Z" transform="translate(-457.53 -562.235)" fill="#2d2d2d"/>
            <rect id="Rectangle_193" data-name="Rectangle 193" width="2.802" height="5.596" transform="translate(29.721 40.528)" fill="#2d2d2d"/>
            <path id="Path_1499" data-name="Path 1499" d="M517.089,614.736h-2.78v3.4h-3.052v2.681h7.885v-2.681h-2.053Z" transform="translate(-478.834 -563.764)" fill="#2d2d2d"/>
        </g>
        <g id="Group_721" data-name="Group 721" transform="translate(46.499 636.624)">
            <path id="Path_1500" data-name="Path 1500" d="M261.432,611.062c.5-3.17.923-8.8.4-11.981-.3-1.825-1.9-2.894-3.462-1.323-1.5,1.516-1.131,4.572-1.538,6.506-.39,1.857-.815,5.686-1.077,7.555a41.48,41.48,0,0,1-1.969,7.857c-.328,1.063-.634,2.133-.93,3.207a6.334,6.334,0,0,1-2.245,3.749,11.538,11.538,0,0,0-1.57,1.769,6.147,6.147,0,0,1-1.861,1.792s-.649.245-.662.507c0,0,.118.978,2.754-.487,0,0,.181-.128.106.217a9.124,9.124,0,0,0-.653,4.5s.093.345.39.293c0,0,.29,0,.407-.479a6.674,6.674,0,0,1,.7-2.541s0,2.968.67,3.13c0,0,.447.119.5-1.743a.537.537,0,0,0,.575.315.741.741,0,0,0,.561-.6s.645.613,1.088-.431c.057-.117.11-.259.162-.38.235-.6.457-1.21.635-1.832a12.886,12.886,0,0,0,.259-2c.311-2.558,2.221-5.127,3.474-7.339s1.143-5.574,2.512-7.72A8.167,8.167,0,0,0,261.432,611.062Z" transform="translate(-240.591 -572.074)" fill="#e7a375"/>
            <path id="Path_1501" data-name="Path 1501" d="M318.88,839.024l2.865,2.966-4.3,4.813-1.767-5.642Z" transform="translate(-290.293 -746.008)" fill="#f8af7a"/>
            <g id="Group_718" data-name="Group 718" transform="translate(26.545 95.136)">
                <path id="Path_1502" data-name="Path 1502" d="M323.762,865.472a.789.789,0,0,0,1-.35L331,851.636l-.7-.291-3.158,3.6Z" transform="translate(-322.647 -849.999)" fill="#fff"/>
                <path id="Path_1503" data-name="Path 1503" d="M324.1,846.564c-.346-.04-.255.192-.258.192-.774.88-2.9,3.248-3.966,3.08-.178-.029.015.868.015.868,1.37,3.523.237,9.843.237,9.843a1.219,1.219,0,0,0,.787,1.486l6.539-14.127Z" transform="translate(-319.801 -846.559)" fill="#414042"/>
            </g>
            <path id="Path_1504" data-name="Path 1504" d="M258.867,732.94c-.612-1.067-1.385-2-.976-3.071,1.766-3.983,5.77-16.641,6.149-16.48-2.1-.242-9.814-4.023-9.814-4.023s-1.987,5.025-2.969,8.281c-.788,2.617-2,8.365-2.558,10.453a5,5,0,0,0,.917,4.423s1.122,1.279,1.1,1.291c6.008,6.436,17.951,18.3,17.951,18.3,2.381-.742,4.208-4.14,4.208-4.14-.566-.806-11.187-11.2-12.372-12.866A22.533,22.533,0,0,1,258.867,732.94Z" transform="translate(-242.035 -652.828)" fill="#e3c754"/>
            <path id="Path_1505" data-name="Path 1505" d="M288.543,888.295l-.372,3.938-5.579-.03.709-5.492Z" transform="translate(-266.515 -780.279)" fill="#f8af7a"/>
            <g id="Group_719" data-name="Group 719" transform="translate(6.218 108.111)">
                <path id="Path_1506" data-name="Path 1506" d="M247.552,910.868s.041.791.75.812l15.627.275-.014-.8-4.818-1.513Z" transform="translate(-247.552 -904.872)" fill="#fff"/>
                <path id="Path_1507" data-name="Path 1507" d="M263.953,895.095s-2.75-.548-3.019-.606c-.973-.219-2.479-.711-2.733-1.73-.043-.181-.25,0-.25,0-2.879,3.159-9.133,4.473-9.133,4.473a1.416,1.416,0,0,0-1.089,1.391l16.363.29S263.954,895.1,263.953,895.095Z" transform="translate(-247.679 -892.676)" fill="#414042"/>
            </g>
            <path id="Path_1508" data-name="Path 1508" d="M295.915,718.009l-11.543-3.958c-2.4,5.483.254,27.3.191,29.154-.229,6.689.015,14.932-1.533,21.482a7.651,7.651,0,0,0,6.3,2.381c.574-1.526,1.265-13.27,1.6-14.726.614-3.131.892-7.532,1.283-10.65a113.4,113.4,0,0,1,2.652-13.23A35.756,35.756,0,0,0,295.915,718.009Z" transform="translate(-266.83 -656.195)" fill="#efd259"/>
            <path id="Path_1509" data-name="Path 1509" d="M276.651,582.772l6.854-1.5a7.173,7.173,0,0,1,2.332.685c8.539,5.459,4.74,16.048,3.01,23.872-1.222,5.5-3.019,11.109-3.172,16.752a25.9,25.9,0,0,1-16.893-5.276s3-6.143,2.865-17.7C271.488,585.644,276.651,582.772,276.651,582.772Z" transform="translate(-256.591 -560.768)" fill="#4a3c42"/>
            <path id="Path_1510" data-name="Path 1510" d="M233.322,616.031c-.071-.093-.187-.254-.255-.353l-4.3-6.16a.236.236,0,0,0-.31-.062l-2.911,1.853a.216.216,0,0,0-.063.3l6.849,10.086a.18.18,0,0,0,.282.032l2.782-2.591a.242.242,0,0,0,.033-.326Z" transform="translate(-225.449 -581.003)" fill="#41464a"/>
            <path id="Path_1511" data-name="Path 1511" d="M238.046,623.825c-.208-.267-.057-.4-.057-.4.2-.2.729.282.729.282a19.07,19.07,0,0,0,2.023,1.551c.285.181,1.055.745,1.426.632l-1.228-1.744c.679.277,1.716.67,2.393.94a3.58,3.58,0,0,1,1.834,2.387,2.991,2.991,0,0,0,.694,1.084l10.634,5.63a50.071,50.071,0,0,1,.417-10.225c4.127,1.544,6.367,1.555,7.9,1.278a63.111,63.111,0,0,1-1.253,9.265c-.817,2.536-1.271,10.756-5.719,7.806l-14.254-10.5c-.729-.38-1.486-.742-2.2-1.158-1.544-.891-1.415-1.5-1.7-3.145-.076-.465-.48-.812-.531-1.295-.041-.326.311-.617.128-.953Z" transform="translate(-234.423 -591.03)" fill="#f8af7a"/>
            <path id="Path_1512" data-name="Path 1512" d="M295.4,570.194c4.229-5.15,7.98-2.56,7.98-2.56a7.842,7.842,0,0,0,1.043,4.705c.006.01.067.13-.03.2a17.635,17.635,0,0,1-4.989,2.407,5.939,5.939,0,0,1-2.595.254,2.306,2.306,0,0,1-1.6-1.438c-.287-.713.271-1.328.324-2.054A4.423,4.423,0,0,0,295.4,570.194Z" transform="translate(-275.526 -550.504)" fill="#f8af7a"/>
            <g id="Group_720" data-name="Group 720" transform="translate(13.192)">
                <path id="Path_1513" data-name="Path 1513" d="M279.412,529.087a6.09,6.09,0,0,0-.456-2.837c-.665-1.067-.525-2.34-.6-3.547-.062-1.075-.3-2.168-.34-3.24,0,0-.679-1.9,9.035-.9,0,0,7.44-2.882,5.126,7.774,0,0-1.6,6.257-2.855,7.46,0,0-7.229,3.642-7.767,1.5-.418-1.634.021-3.951-1.892-4.742,0,0-.423-.1-.328-.66C279.336,529.894,279.4,529.268,279.412,529.087Z" transform="translate(-276.412 -515.449)" fill="#f8af7a"/>
                <path id="Path_1514" data-name="Path 1514" d="M272.338,508.411a12.406,12.406,0,0,0,6.708.946c3.813-.533,8.837.083,10.276,4.489,1.431,4.362.529,10.674-3.628,13.216a16.365,16.365,0,0,1-4.977,2.02c-3.1.791-3.528-.8-3.491-1.7.006-.283.652-.032.763,0a5.261,5.261,0,0,0,2.324-.14l-.344-1.11a1.634,1.634,0,0,0-1.795-1.219,5.636,5.636,0,0,0-1.01.131c-.336.08-.472-.252-.71-.723a.146.146,0,0,1-.012-.185c3.847-1.954,5.187,2.607,5.187,2.607,3.627-1.309,3.847-2.285,4.4-5.215a2.824,2.824,0,0,0,1.238-1.7c.3-1.8-.856-2.063-.856-2.063-1.261-.265-1.427,1.527-1.446,1.77l-.663.052c-.026-.293-.166-2.034-.166-2.039-.093-1.2-.371-2.49-1.856-2.325-2.294.257-5.607.83-7.709-.459a4.48,4.48,0,0,1-2-3.028C272.474,511,273.013,508.966,272.338,508.411Z" transform="translate(-272.338 -508.411)" fill="#302b2d"/>
            </g>
        </g>
        <g id="man1" transform="translate(104.227 678.713)">
            <g id="Group_722" data-name="Group 722" transform="translate(26.119 66.557)">
                <path id="Path_1515" data-name="Path 1515" d="M527.789,896.3s5.327,6.832,5.855,8.49c0,0,.808,1.559-.288,2.082-2.83,1.351-4.935-1.573-6.157-3.229a31.875,31.875,0,0,0-2.936-3.285c-1.455-1.481-.554-3.312-.014-4.574C525.127,893.727,527.789,896.3,527.789,896.3Z" transform="translate(-523.474 -894.873)" fill="#2b2c3d"/>
                <path id="Path_1516" data-name="Path 1516" d="M529.174,896.974s4.893,6.589,5.373,8.095c0,0,.6,1.263-.4,1.741-2.575,1.229-4.423-1.47-5.536-2.976a21.786,21.786,0,0,0-2.641-3.007,3.963,3.963,0,0,1-.773-4.513C525.979,894.432,529.174,896.974,529.174,896.974Z" transform="translate(-524.444 -895.328)" fill="#4a3c42"/>
                <path id="Path_1517" data-name="Path 1517" d="M530.595,896.438h0a1.58,1.58,0,0,1-.985,2.406,2.37,2.37,0,0,1-2.391-.789c-1.1-1.091-.483-2.128-.244-3.475h2.39Z" transform="translate(-525.711 -894.58)" fill="#eddce2"/>
            </g>
            <g id="Group_723" data-name="Group 723" transform="translate(2.145 66.611)">
                <path id="Path_1518" data-name="Path 1518" d="M444.334,896.605s-5.266,6.765-5.791,8.42c0,0-.8,1.546.292,2.07,2.828,1.349,4.935-1.573,6.156-3.229a31.123,31.123,0,0,1,2.936-3.283c1.454-1.482.553-3.312.017-4.575C447.063,893.949,444.334,896.605,444.334,896.605Z" transform="translate(-438.26 -895.098)" fill="#2b2c3d"/>
                <path id="Path_1519" data-name="Path 1519" d="M444.44,897.158s-4.892,6.587-5.374,8.094c0,0-.6,1.265.4,1.74,2.573,1.228,4.424-1.47,5.535-2.975a21.939,21.939,0,0,1,2.641-3.006,3.963,3.963,0,0,0,.773-4.514C447.635,894.616,444.44,897.158,444.44,897.158Z" transform="translate(-438.713 -895.513)" fill="#4a3c42"/>
                <path id="Path_1520" data-name="Path 1520" d="M457.39,896.63h0a1.576,1.576,0,0,0,.986,2.4,2.357,2.357,0,0,0,2.387-.79c1.1-1.089.485-2.126.248-3.471h-2.395Z" transform="translate(-451.816 -894.772)" fill="#eddce2"/>
            </g>
            <path id="Path_1521" data-name="Path 1521" d="M432.027,799.829c2.562-2.338,6.527-2.948,9.816-3.461,2.219-.345,5.639-1.278,8.168-1.2,2.525-.078,5.944.855,8.165,1.2,3.29.514,7.255,1.124,9.817,3.461,2.094,1.911,1.315,4.491.9,6.931-1.071,6.315-4.2,12.449-6.768,18.387,0,0-5.315-.3-5.05-1.161.642-2.123.556-4.938.945-7.187.563-3.269,2.252-5.944,2.458-9.9,0,0-6.637-2.224-10.469-2.166-3.969.06-10.47,2.166-10.47,2.166.2,3.959,1.9,6.633,2.459,9.9.385,2.249.3,5.064.944,7.187.261.864-5.053,1.161-5.053,1.161-2.559-5.939-5.7-12.072-6.767-18.387C430.712,804.32,429.936,801.74,432.027,799.829Z" transform="translate(-430.636 -756.576)" fill="#1f77b4"/>
            <path id="Path_1522" data-name="Path 1522" d="M439.218,712.482l.681-4.61c.442-2.989,4.269-4.093,4.269-4.093l11.743-3.21,11.742,3.21s3.828,1.1,4.269,4.093l.7,4.976c.226,1.6.328,5.151.328,5.151-2.264,2.218-5.871,1.3-7.289,1.219-2.123,7.471-.286,10.367-.286,10.367-7.589,3.612-18.488.768-18.488.768.3-7.877-.665-8.875-.976-11.117-1.508.1-4.529,1.14-7.043-1.132A44.68,44.68,0,0,1,439.218,712.482Z" transform="translate(-436.552 -688.596)" fill="#e04f64"/>
            <g id="Group_725" data-name="Group 725" transform="translate(12.143)">
                <g id="Group_724" data-name="Group 724" transform="translate(0 10.765)">
                    <path id="Path_1523" data-name="Path 1523" d="M519.026,696.321c1-.232,1.005.9,1,1.458a2.947,2.947,0,0,1-.946,2.369s-1.148.656-1.116-.384C517.965,699.764,518.1,696.536,519.026,696.321Z" transform="translate(-505.539 -696.286)" fill="#f8af7a"/>
                    <path id="Path_1524" data-name="Path 1524" d="M520.078,699.171c.6-.222.692.5.736.863a1.912,1.912,0,0,1-.39,1.582s-.65.5-.716-.167C519.708,701.449,519.525,699.373,520.078,699.171Z" transform="translate(-506.771 -698.327)" fill="#eba26f"/>
                    <path id="Path_1525" data-name="Path 1525" d="M474.962,696.31c-1.087-.248-1.141.879-1.161,1.448a2.754,2.754,0,0,0,.939,2.382s1.228.671,1.238-.371C475.978,699.769,475.967,696.542,474.962,696.31Z" transform="translate(-473.798 -696.275)" fill="#f8af7a"/>
                    <path id="Path_1526" data-name="Path 1526" d="M475.992,699.171c-.6-.222-.7.5-.741.863a1.915,1.915,0,0,0,.389,1.582s.651.5.719-.167C476.359,701.449,476.541,699.373,475.992,699.171Z" transform="translate(-474.825 -698.327)" fill="#eba26f"/>
                </g>
                <path id="Path_1527" data-name="Path 1527" d="M483.714,668.965s6.924.585,5.748,9.315c.135,4.3-1.752,6.552-4.885,8.43a2.348,2.348,0,0,1-2.249,0c-3.454-1.707-4.784-4.018-4.919-8.428a26.24,26.24,0,0,1-.2-3.51C478.207,667.523,483.714,668.965,483.714,668.965Z" transform="translate(-476.223 -665.8)" fill="#f8af7a"/>
                <path id="Path_1528" data-name="Path 1528" d="M487.621,670.493c1.068-3.184,2.617-6.326,1.25-9.619-.4-.97-.975-1.943-1.421-2.861-1.364,1.116-3.176,1.155-4.859,1.057,0,0-4.176-.552-4.05,1.1,0,0-3.369-.3-3.759,1.926a18.553,18.553,0,0,0,.786,8.4s-.384-4.523.5-5.317c0,0,.887-.975,3.1-.124,1.73.668,8.083-1.757,8.234,1.345C487.405,666.4,487.621,668.48,487.621,670.493Z" transform="translate(-474.382 -658.012)" fill="#4f3b44"/>
            </g>
            <path id="Path_1529" data-name="Path 1529" d="M497.9,760.272a7.749,7.749,0,0,1,1.907.921,3.791,3.791,0,0,1,1.594,1.937c.558,1.726,3.741,4.064,5.466,4.575.125.037.163-.334.149-.94a18.66,18.66,0,0,1-.529-4.716c1.418.078,5.775.192,7.289-1.219,0,1.4-.068,2.336-.068,2.336a42.214,42.214,0,0,1-.673,5.238c-.086.436-.185.878-.291,1.315-.171.689-.4,1.362-.587,2.044a10.355,10.355,0,0,0-.24,1.062c-.1.615-.3,1.457-1.041,1.612a3.578,3.578,0,0,1-2.169-.541,17,17,0,0,1-9.324-8.829,13.99,13.99,0,0,0-1.27-2.563c-.272-.421-.676-1.119-1.181-1.3-.307-.119-1.692.129-1.123-.657C496.148,760.063,497.443,760.127,497.9,760.272Z" transform="translate(-477.373 -731.426)" fill="#f8af7a"/>
            <g id="Group_726" data-name="Group 726" transform="translate(15.713 28.094)">
                <path id="Path_1530" data-name="Path 1530" d="M486.487,766.377a.332.332,0,0,0,.324.337h5.372a.331.331,0,0,0,.321-.337v-8.172a.329.329,0,0,0-.321-.336h-5.372a.331.331,0,0,0-.324.336Z" transform="translate(-486.487 -757.869)" fill="#fff"/>
                <path id="Path_1531" data-name="Path 1531" d="M486.487,767.384a.334.334,0,0,0,.324.339h5.372a.333.333,0,0,0,.321-.339v-7.846a.332.332,0,0,0-.321-.34h-5.372a.334.334,0,0,0-.324.34Z" transform="translate(-486.487 -758.823)" fill="#414143"/>
                <path id="Path_1532" data-name="Path 1532" d="M495.934,765.856a.351.351,0,1,0,.35-.35A.35.35,0,0,0,495.934,765.856Z" transform="translate(-493.276 -763.357)" fill="#202021"/>
            </g>
            <path id="Path_1533" data-name="Path 1533" d="M438.893,770.585c-.051-2.547-.12-5.128-.068-7.689,1.455,1.358,5.506,1.231,7.042,1.132-.1,1.152-.221,2.129-.25,2.31-.2,1.217-.5,1.689-.971,3.532-.094.368,4.845.659,5.114.587a1.264,1.264,0,0,0,1.09-1.392,4.942,4.942,0,0,1,.169-1.81,2.33,2.33,0,0,0,.267-1.285c-.068-1.038.935-1.545,1.016-.285.038.588-.453,3.322,1.021,2.391q.338-.217.678-.428c1.025-.644,2.111-1.2,3.19-1.744.257-.132,2.54-1.438,2.7-.568.043.247-.371.492-.554.638a22.062,22.062,0,0,1-1.793,1.286s1.056-.313.675.955a.686.686,0,0,1,.243,1.088c.025-.043.211.251.215.272a.77.77,0,0,1-.458.877c-.74.456-6.253,4.391-12.309,5.013-1.723.179-3.857,1.107-5.568.962a1.244,1.244,0,0,1-1.251-1.043,5.676,5.676,0,0,1,.032-1.085c.007-.431-.02-.861-.047-1.292C439.013,772.2,438.91,771.393,438.893,770.585Z" transform="translate(-436.508 -733.388)" fill="#f8af7a"/>
        </g>
        <g id="women_2" data-name="women 2" transform="translate(150.927 681.226)">
            <path id="Path_1534" data-name="Path 1534" d="M787.772,877.739l5.766.693.941-.42-3.746-7.189c.035.082-5.8-.337-4.838.658C787.26,872.879,787.9,875.695,787.772,877.739Z" transform="translate(-732.568 -813.449)" fill="#aa7d5e"/>
            <path id="Path_1535" data-name="Path 1535" d="M654,804.788s-6.191,7.353.961,10.576c3.705,1.667,5.019-1.168,7.517-3.978q4.764-5.385,9.516-10.8c1.99-2.27,3.986-4.515,5.979-6.774a13.65,13.65,0,0,0,1.063,2.657c2.023,5.566,6.818,9.159,11.027,13.528.309.324.355.408.788.493a10.494,10.494,0,0,0,2.874-.644c1.133-.525.928-1.248.68-1.749l-11.276-19.48c-1.207-2.379-3.517-6.709-6.616-4.118l-2.246,1.875c-2.935,2.454-5.8,4.962-8.785,7.379-1.2.961-1.351,3.192-2.6,4.117C659.876,800.112,656.891,802.409,654,804.788Z" transform="translate(-636.074 -750.853)" fill="#dad899"/>
            <path id="Path_1536" data-name="Path 1536" d="M678.723,789.608s-10.245,2.653-12.4,3.083c-.35.075-.6-.342-.755-.6a15.188,15.188,0,0,1-1.607-3.862,43.165,43.165,0,0,0-3.413-7.621l-.9,7.7s1.643,5.869,4.141,8.676C663.785,796.992,676,795.091,678.723,789.608Z" transform="translate(-641.914 -748.633)" fill="#987054"/>
            <g id="Group_727" data-name="Group 727" transform="translate(53.328 58.587)">
                <path id="Path_1537" data-name="Path 1537" d="M786.906,877.593a8.032,8.032,0,0,1-.549,1.807c-.171.749-.425,1.914.317,2.355a3.123,3.123,0,0,0,1.84.282,18.349,18.349,0,0,1,4.061.084,13.331,13.331,0,0,0,4.258.126,4.092,4.092,0,0,0,2.073-.8c.379-.288,1.213-.963.937-1.818,0,0-.269-.52-1.317-.407a6.02,6.02,0,0,1-3.419-.555s-2.162-2.339-3.4-2.726c-.415-.127-.628.332-.624.646.013.374-.31.565-.418.929-.258.839-.636,1.349-1.456,1.372a2.022,2.022,0,0,1-.318-.026,2.118,2.118,0,0,1-1.259-.612,2.481,2.481,0,0,1-.422-.84C787.042,876.948,786.887,877.226,786.906,877.593Z" transform="translate(-786.173 -875.712)" fill="#fff"/>
                <path id="Path_1538" data-name="Path 1538" d="M786.784,876.146a7.607,7.607,0,0,0-.435,4.309s.354.776,2.141.7a18.409,18.409,0,0,1,4.058.078,13.368,13.368,0,0,0,4.257.129,4.016,4.016,0,0,0,2.073-.809c.382-.28,1.178-.9.962-1.517a1.207,1.207,0,0,0-1.344-.7,7.147,7.147,0,0,1-1.924-.039c-1.305-.2-2.1-1.1-3.136-1.931-.623-.5-1.856-1.908-2.38-.717-.393.891-.649,1.628-1.681,1.74a1.807,1.807,0,0,1-2.027-.933C787.123,876.146,786.955,875.94,786.784,876.146Z" transform="translate(-786.195 -875.185)" fill="#53434a"/>
                <path id="Path_1539" data-name="Path 1539" d="M813.2,884.409a.164.164,0,0,0-.087-.205.14.14,0,0,0-.182.1.183.183,0,0,0,.027.155,2.187,2.187,0,0,1-.413.884.118.118,0,0,0-.143.091.133.133,0,0,0,.071.174.125.125,0,0,0,.165-.086.159.159,0,0,0,.006-.078,2.287,2.287,0,0,0,.443-.935A.144.144,0,0,0,813.2,884.409Z" transform="translate(-805.015 -881.661)" fill="#fff"/>
                <path id="Path_1540" data-name="Path 1540" d="M810.795,882.365a.16.16,0,0,0-.2.1.187.187,0,0,0,.032.168,2.356,2.356,0,0,1-.451.954.129.129,0,0,0-.148.092.155.155,0,0,0,.082.191.134.134,0,0,0,.175-.088.126.126,0,0,0,.006-.091,2.577,2.577,0,0,0,.475-1.005.143.143,0,0,0,.124-.108A.162.162,0,0,0,810.795,882.365Z" transform="translate(-803.309 -880.338)" fill="#fff"/>
                <path id="Path_1541" data-name="Path 1541" d="M808.5,880.571a.164.164,0,0,0-.209.111.175.175,0,0,0,.036.175,2.568,2.568,0,0,1-.466.984.139.139,0,0,0-.16.1.153.153,0,0,0,.084.2.138.138,0,0,0,.182-.087.108.108,0,0,0,0-.095,2.561,2.561,0,0,0,.5-1.047.144.144,0,0,0,.128-.105A.191.191,0,0,0,808.5,880.571Z" transform="translate(-801.638 -879.049)" fill="#fff"/>
                <path id="Path_1542" data-name="Path 1542" d="M806.193,878.82a.153.153,0,0,0-.211.108.177.177,0,0,0,.032.18,2.68,2.68,0,0,1-.481,1.02.147.147,0,0,0-.168.1.165.165,0,0,0,.087.206.144.144,0,0,0,.194-.1.676.676,0,0,0,0-.092,2.8,2.8,0,0,0,.512-1.079.17.17,0,0,0,.133-.118A.179.179,0,0,0,806.193,878.82Z" transform="translate(-799.959 -877.787)" fill="#fff"/>
                <path id="Path_1543" data-name="Path 1543" d="M803.919,877.11a.168.168,0,0,0-.22.107.189.189,0,0,0,.032.186,2.608,2.608,0,0,1-.489,1.039.15.15,0,0,0-.169.1.176.176,0,0,0,.094.211.143.143,0,0,0,.19-.1.183.183,0,0,0,.008-.1,2.759,2.759,0,0,0,.515-1.093.183.183,0,0,0,.14-.121A.2.2,0,0,0,803.919,877.11Z" transform="translate(-798.314 -876.561)" fill="#fff"/>
            </g>
            <path id="Path_1544" data-name="Path 1544" d="M797.856,878.107l5.47.325.934-.42-3.749-7.189c.039.082-5.8-.337-4.831.658A10.349,10.349,0,0,1,797.856,878.107Z" transform="translate(-739.599 -813.449)" fill="#aa7d5e"/>
            <g id="Group_728" data-name="Group 728" transform="translate(56.287 58.994)">
                <path id="Path_1545" data-name="Path 1545" d="M797.5,879.063c.048.485-.487,1.339-.6,1.825-.186.756-.473,1.934.353,2.387a3.716,3.716,0,0,0,2.027.275,22.078,22.078,0,0,1,4.485.091,16.552,16.552,0,0,0,4.691.126,4.762,4.762,0,0,0,2.3-.812c.414-.291,1.342-.981,1.028-1.835,0,0-.289-.53-1.453-.409a7.3,7.3,0,0,1-3.771-.554s-2.388-2.375-3.751-2.755c-.466-.133-.7.328-.694.648.015.388-.343.572-.461.94-.28.844-.7,1.359-1.6,1.386a2.05,2.05,0,0,1-.36-.031,1.99,1.99,0,0,1-1.861-1.47C797.649,878.422,797.475,878.694,797.5,879.063Z" transform="translate(-796.689 -877.167)" fill="#fff"/>
                <path id="Path_1546" data-name="Path 1546" d="M797.352,877.6a7.06,7.06,0,0,0-.481,4.352s.392.795,2.361.708a21.405,21.405,0,0,1,4.482.087,16.232,16.232,0,0,0,4.7.127,4.842,4.842,0,0,0,2.3-.815c.415-.293,1.3-.915,1.052-1.536a1.331,1.331,0,0,0-1.477-.7,8.666,8.666,0,0,1-2.125-.039c-1.443-.2-2.322-1.119-3.459-1.946-.7-.507-2.049-1.93-2.631-.732-.436.906-.718,1.646-1.85,1.761a2.084,2.084,0,0,1-2.248-.938C797.725,877.6,797.539,877.393,797.352,877.6Z" transform="translate(-796.703 -876.631)" fill="#5e4c54"/>
                <path id="Path_1547" data-name="Path 1547" d="M826.526,885.944a.157.157,0,0,0-.106-.2.153.153,0,0,0-.2.095.161.161,0,0,0,.026.159,2.016,2.016,0,0,1-.456.89.143.143,0,0,0-.156.085.136.136,0,0,0,.086.183.132.132,0,0,0,.171-.081.125.125,0,0,0,.009-.086,2.279,2.279,0,0,0,.492-.935A.188.188,0,0,0,826.526,885.944Z" transform="translate(-817.487 -883.172)" fill="#fff"/>
                <path id="Path_1548" data-name="Path 1548" d="M823.868,883.876a.172.172,0,0,0-.219.1.161.161,0,0,0,.032.171,2.367,2.367,0,0,1-.5.963.141.141,0,0,0-.164.093.155.155,0,0,0,.091.2.156.156,0,0,0,.192-.093.131.131,0,0,0,0-.087,2.611,2.611,0,0,0,.528-1.006.212.212,0,0,0,.134-.114A.172.172,0,0,0,823.868,883.876Z" transform="translate(-815.605 -881.831)" fill="#fff"/>
                <path id="Path_1549" data-name="Path 1549" d="M821.32,882.083a.173.173,0,0,0-.223.106.178.178,0,0,0,.029.177,2.423,2.423,0,0,1-.51,1,.158.158,0,0,0-.175.1.163.163,0,0,0,.094.2.159.159,0,0,0,.2-.1.149.149,0,0,0,0-.093,2.588,2.588,0,0,0,.552-1.046.207.207,0,0,0,.144-.119A.179.179,0,0,0,821.32,882.083Z" transform="translate(-813.752 -880.541)" fill="#fff"/>
                <path id="Path_1550" data-name="Path 1550" d="M818.784,880.288a.186.186,0,0,0-.237.116.2.2,0,0,0,.038.183,2.522,2.522,0,0,1-.533,1.027.174.174,0,0,0-.185.112.168.168,0,0,0,.1.208.171.171,0,0,0,.21-.1.131.131,0,0,0,0-.1,2.569,2.569,0,0,0,.57-1.086.2.2,0,0,0,.151-.123A.194.194,0,0,0,818.784,880.288Z" transform="translate(-811.902 -879.251)" fill="#fff"/>
                <path id="Path_1551" data-name="Path 1551" d="M816.266,878.577a.2.2,0,0,0-.242.111.21.21,0,0,0,.039.181,2.414,2.414,0,0,1-.539,1.049.18.18,0,0,0-.183.109.168.168,0,0,0,.1.212.16.16,0,0,0,.206-.1.126.126,0,0,0,.005-.094,2.772,2.772,0,0,0,.579-1.107.183.183,0,0,0,.15-.122A.191.191,0,0,0,816.266,878.577Z" transform="translate(-810.086 -878.022)" fill="#fff"/>
            </g>
            <path id="Path_1552" data-name="Path 1552" d="M643.278,803.513l-9.014,6.126a17.958,17.958,0,0,0,2.343,3.488,9.859,9.859,0,0,0,8.419,3.232c3.474-.263,5.61-2.51,7.8-4.972q4.769-5.385,9.521-10.8c1.987-2.27,3.992-4.515,5.974-6.774a13.992,13.992,0,0,0,1.072,2.657c2.021,5.566,6.812,9.159,11.023,13.528.307.324.354.408.791.493a10.556,10.556,0,0,0,2.871-.644c1.13-.525.929-1.248.674-1.749l-11.272-19.48c-1.209-2.379-3.516-6.709-6.619-4.118l-2.244,1.875c-4.12,3.442-8.09,6.985-12.447,10.225C649.148,798.847,646.176,801.136,643.278,803.513Z" transform="translate(-623.675 -750.853)" fill="#e7e5a3"/>
            <path id="Path_1553" data-name="Path 1553" d="M620.084,705.981c1.209-3.179,4.2-7.191,2.709-10.9,0,0-3.913-11.6,7.732-10.872,0,0,4.886,2.892,5.58,3.518a8.977,8.977,0,0,1,.934,4.867c-.106.7-1.125,2.363-1.2,3.134a22.539,22.539,0,0,0,.216,2.457c0,.693-.473.931-1.1.7,0,0-.214.781-.779.8,0,0-.131,1.074-.89.93,0,0-.326,2.127-1.709,1.874,0,0-1,.017-1.888-1.526.309.527-.3,1.375-.5,1.856a3.906,3.906,0,0,0-.246,2.6,18.406,18.406,0,0,0,1.328,2.637c.648,1.265,1,2.256,1.5,3.151C631.763,711.206,618.436,710.343,620.084,705.981Z" transform="translate(-613.383 -679.324)" fill="#aa7d5e"/>
            <path id="Path_1554" data-name="Path 1554" d="M619.574,758.66c1.578,1.131,3.96,1.609,4.5,2.114l1.859,3.005c2.257,3.624,6.179,6.763,2.97,11.263-1.244,1.738-.732,3.962.341,5.863.594,1.052,1.675-.458,2.411.256.195.177.387.357.592.517-1.743,3.409-2.018,6.776-7.168,9.926-1.845,1.119-5.735,1.846-7.142-.518-4.334-7.255-6.188-15.919-6.6-24.15C611.11,762.226,613.959,754.651,619.574,758.66Z" transform="translate(-607.192 -732.043)" fill="#193c84"/>
            <g id="Group_729" data-name="Group 729" transform="translate(29.404 33.607)">
                <path id="Path_1555" data-name="Path 1555" d="M701.3,799.072a.7.7,0,0,0,.963-.155l10.484-11.446c.28-.31.572-.679.066-.972a.773.773,0,0,0-.961.155l-10.482,11.453A.7.7,0,0,0,701.3,799.072Z" transform="translate(-701.137 -786.397)" fill="#fff"/>
                <path id="Path_1556" data-name="Path 1556" d="M702.013,799.479a.691.691,0,0,0,.953-.154l10.478-11.452a.7.7,0,0,0,.08-.968.711.711,0,0,0-.964.148l-10.479,11.456A.7.7,0,0,0,702.013,799.479Z" transform="translate(-701.647 -786.668)" fill="#3d3d3d"/>
            </g>
            <path id="Path_1557" data-name="Path 1557" d="M616.034,776.093a2.013,2.013,0,0,1,.986-.242,3.525,3.525,0,0,1,3.265,2.665A125.8,125.8,0,0,1,623.59,791.4c.248,1.2.281,2.264,1.8,2.212.9-.026,2.769-.3,3.672-.435,2.061-.314,4.4-1.59,6.332-2.436,1.663-.736,2.779-2.256,4.274-3.23a16.193,16.193,0,0,1,3.9-2.225c.739-.3.808,0,.808,0,.17.269-2.21,2.306-2.21,2.306.746-.056.229.891.229.891.331.314-.223.815-.223.815.286.273-.1.915-.1.915.823.871-2.461,2.395-2.925,2.6-1.7.753-3.085,1.207-4.547,2.029s-2.941,2.05-4.578,2.454c-2.483.612-5.834,1.688-8.4,1.527a.919.919,0,0,1-.773-.432,29.5,29.5,0,0,1-2-4.414c-1.7-3.639-1.968-5.666-3.35-10.667a20.158,20.158,0,0,1-.886-3.719C614.514,778.333,614.937,776.7,616.034,776.093Z" transform="translate(-609.539 -745.211)" fill="#aa7d5e"/>
            <g id="Group_731" data-name="Group 731" transform="translate(0)">
                <path id="Path_1558" data-name="Path 1558" d="M620.358,679.337c-1.5-.031-3.123-1.333-4.59-.838-1.979.662-2.637,2.8-3.962,4.159a11.027,11.027,0,0,1-1.146,1.039,3.615,3.615,0,0,0-.583-1.992,1.148,1.148,0,0,0-1.238-.362c-1.28.56-.291,2.427-.117,3.306s-.881,1.52-1.623,1.272c-.047-.019-.095-.04-.144-.065a3.687,3.687,0,0,1-1.461-1.681c-.166-.339-.97-.273-1.251-.285-10.317-.4-9.886-15.929-.317-16.946a7.467,7.467,0,0,1,6.885,4.771.441.441,0,0,1,.113-.031,8.475,8.475,0,0,1,8.624,3.682A8.806,8.806,0,0,1,620.358,679.337Z" transform="translate(-596.626 -666.944)" fill="#2b2b2b"/>
                <g id="Group_730" data-name="Group 730" transform="translate(7.851 3.854)">
                    <path id="Path_1559" data-name="Path 1559" d="M626.227,688.936a16.944,16.944,0,0,0-.794,4.956,2.126,2.126,0,0,0-.9-.157,18.35,18.35,0,0,1,3.164-9.881,18.736,18.736,0,0,1,2.743-3.211,3.57,3.57,0,0,1,.425.917A17.932,17.932,0,0,0,626.227,688.936Z" transform="translate(-624.532 -680.644)" fill="#193c84"/>
                </g>
            </g>
        </g>
    </g>
</svg>
