<svg xmlns="http://www.w3.org/2000/svg" width="94" height="100.771" viewBox="0 0 94 100.771">
    <g id="Group_741" data-name="Group 741" transform="translate(-311.811 -512.267)">
        <path id="Path_1575" data-name="Path 1575" d="M359.254,635.38a32.075,32.075,0,0,0,16.662,4.812c9.461,0,17.482-4.739,18.433-4.926a22.967,22.967,0,0,1,1.714,3.305.21.21,0,0,1-.028.213l-15.258,18.049a27.429,27.429,0,0,1-7.852.117l-15.3-18.363a.21.21,0,0,1-.023-.235S359.154,635.33,359.254,635.38Z" transform="translate(-17.726 -47.645)" fill="#282f42"/>
        <path id="Path_1576" data-name="Path 1576" d="M358.365,639.48a9.681,9.681,0,0,1,.889-1.512,32.076,32.076,0,0,0,16.662,4.812c9.461,0,17.482-4.739,18.433-4.926a17.026,17.026,0,0,1,.994,1.748l.692-.818a.21.21,0,0,0,.028-.213,22.967,22.967,0,0,0-1.714-3.305c-.951.186-8.972,4.926-18.433,4.926a32.075,32.075,0,0,1-16.662-4.812c-.1-.05-1.655,2.973-1.655,2.973a.21.21,0,0,0,.023.235Z" transform="translate(-17.726 -47.645)" fill="#2a2a2b"/>
        <path id="Path_1577" data-name="Path 1577" d="M411.992,650.087c5.894-2.844,18.787-10.507,24.218-21.979.755-1.6-1.134-8.335-7.321-6.156-3.828,1.347-23.719,8.068-26.935,12.331-5.195,6.887-5.436,13.161-6.507,17.226C398.368,652.771,409.045,651.509,411.992,650.087Z" transform="translate(-32.397 -42.321)" fill="#282f42"/>
        <path id="Path_1578" data-name="Path 1578" d="M339.206,649.932c-5.894-2.845-22.967-15.146-23.761-22.024-.2-1.753-1.914-7.129,5.427-6.9,3.828,1.348,25.221,9.135,28.828,13.071,4.521,4.934,6,13.474,6.507,17.226C353.285,652.57,342.154,651.354,339.206,649.932Z" transform="translate(-1.286 -42.12)" fill="#282f42"/>
        <path id="Path_1579" data-name="Path 1579" d="M378,647.252a108.791,108.791,0,0,1-14.061-1.423c-6.7-2.732-43.4-23.053-43.4-23.053-5.94-1.572-7.541,3.618-5.743,6.782,4.679,8.232,9.073,12.96,25.685,15.159,4.943.654,14.287,3.44,19.357,5.331.34,1.16,1.535,2.462,4.306,2.738,1.472.146,9.857,3.151,13.756,2.808,6.5-.571,6.469-3.469,6.5-4.757S382.829,647.466,378,647.252Z" transform="translate(-0.886 -42.695)" fill="#ffb380"/>
        <g id="Group_737" data-name="Group 737" transform="translate(358.004 602.909)">
            <path id="Path_1580" data-name="Path 1580" d="M406.317,661.868a108.8,108.8,0,0,1-14.061-1.423c-.158-.064-.338-.143-.528-.227l-4.518,4.1c.329.118.646.233.947.345.34,1.16,1.535,2.462,4.306,2.738,1.472.146,9.857,3.151,13.756,2.808,6.5-.571,6.469-3.469,6.5-4.757S411.15,662.081,406.317,661.868Z" transform="translate(-387.211 -660.219)" fill="#083b84"/>
            <path id="Path_1581" data-name="Path 1581" d="M406.828,671.346c6.5-.571,6.469-3.469,6.5-4.757.025-1.138-1.224-2.9-4.856-3.439a9.507,9.507,0,0,0-2.438,6.316c-7.342.284-13.838-2.294-17.251-3.628.355,1.149,1.551,2.426,4.292,2.7C394.544,668.684,402.929,671.689,406.828,671.346Z" transform="translate(-387.819 -661.355)" fill="#dce8ef"/>
            <path id="Path_1582" data-name="Path 1582" d="M400.647,660.839h0A7.814,7.814,0,0,0,399.479,665l0,.315" transform="translate(-391.963 -660.459)" fill="none" stroke="#e6e7e8" stroke-linecap="round" stroke-miterlimit="10" stroke-width="0.942"/>
            <path id="Path_1583" data-name="Path 1583" d="M403.884,661.356h0a7.808,7.808,0,0,0-1.168,4.157l0,.314" transform="translate(-393.217 -660.659)" fill="none" stroke="#e6e7e8" stroke-linecap="round" stroke-miterlimit="10" stroke-width="0.942"/>
            <path id="Path_1584" data-name="Path 1584" d="M407.159,661.773h0a7.819,7.819,0,0,0-1.168,4.157l0,.314" transform="translate(-394.486 -660.821)" fill="none" stroke="#e6e7e8" stroke-linecap="round" stroke-miterlimit="10" stroke-width="0.942"/>
            <path id="Path_1585" data-name="Path 1585" d="M409.939,662.09h0a7.819,7.819,0,0,0-1.168,4.157l0,.314" transform="translate(-395.562 -660.944)" fill="none" stroke="#e6e7e8" stroke-linecap="round" stroke-miterlimit="10" stroke-width="0.942"/>
        </g>
        <path id="Path_1586" data-name="Path 1586" d="M385.915,659.069c-1.023-.417-2.742-1.266-4.915-2.4h0c-1.547.853-3.363,1.874-3.808,2.074-.512.115-4.016.574-6.354,1.089,3.985,1.083,8.147,2.4,10.977,3.459a3,3,0,0,0,.37.79c2.955-1.606,10.305-2.692,13.22-3.866A85.965,85.965,0,0,1,385.915,659.069Z" transform="translate(-22.865 -55.934)" opacity="0.05"/>
        <path id="Path_1587" data-name="Path 1587" d="M319.586,620.869s20.112,11.65,33.284,18.66a31.614,31.614,0,0,1-.5,5.8,51.387,51.387,0,0,1-4.516,6.168c-4.741-3.105-6.978-4.512-9.863-5.389-19.261-5.855-21-8.6-25.676-16.829C310.519,626.114,313.646,619.3,319.586,620.869Z" transform="translate(0 -41.978)" fill="#2e364d"/>
        <path id="Path_1588" data-name="Path 1588" d="M312.118,630.332c-.029-.075-.06-.149-.085-.227-.015-.045-.026-.091-.039-.137-.021-.072-.042-.144-.059-.219-.012-.049-.02-.1-.029-.15-.014-.073-.029-.146-.04-.221-.007-.052-.012-.1-.018-.157-.009-.075-.017-.151-.022-.227,0-.053,0-.108-.007-.161,0-.078,0-.156,0-.235,0-.054,0-.108,0-.162,0-.081.007-.162.013-.243,0-.053.01-.107.015-.161.009-.083.018-.167.03-.252.008-.052.016-.1.025-.156q.022-.131.05-.261c.01-.05.021-.1.032-.149.021-.09.044-.18.069-.27.013-.047.026-.094.04-.141.028-.093.058-.186.089-.279.015-.043.029-.087.045-.13.035-.1.073-.192.112-.288.016-.039.031-.078.048-.117.043-.1.089-.2.137-.3.017-.034.032-.068.049-.1.053-.1.108-.206.166-.308.015-.027.029-.054.045-.08.065-.112.134-.221.2-.328l.031-.05c.083-.123.17-.244.26-.363h0c.124.213.248.431.372.667,5.361,10.075,32.924,19.737,38.72,21.676v0a51.538,51.538,0,0,1-4.515,6.166c-4.741-3.105-6.978-4.512-9.863-5.389-19.261-5.855-21-8.6-25.676-16.829a3.433,3.433,0,0,1-.157-.316C312.145,630.407,312.133,630.369,312.118,630.332Z" transform="translate(-0.001 -43.46)" opacity="0.05"/>
        <path id="Path_1589" data-name="Path 1589" d="M370.163,660.749c.02-.07.042-.172.066-.3a56.963,56.963,0,0,1-11.494,1.757c-.349,0-.679.017-.995.036a55.806,55.806,0,0,1,7.907,4.671A51.4,51.4,0,0,0,370.163,660.749Z" transform="translate(-17.791 -57.401)" fill="#323233"/>
        <path id="Path_1590" data-name="Path 1590" d="M412.33,623.7s-37.325,21.223-43.616,22.713a91.651,91.651,0,0,1-14.4,1.461c-4.837.06-5.446,2.342-5.418,3.63s2.7,4.171,4.692,4.426c6.14.784,13.53-2.017,15-2.164,3.068-.306,4.694-2.512,4.877-3.748,4.722-1.921,14.986-4.2,19.276-4.717,16.749-2.033,21.006-7.673,25.685-15.9C420.226,626.235,418.27,622.128,412.33,623.7Z" transform="translate(-14.365 -43.031)" fill="#ffb380"/>
        <path id="Path_1591" data-name="Path 1591" d="M431.511,621.376s-20.112,11.65-33.284,18.66a31.69,31.69,0,0,0,.5,5.8A51.48,51.48,0,0,0,403.24,652c4.741-3.105,6.977-4.512,9.862-5.389,19.262-5.855,21-8.6,25.676-16.829C440.577,626.621,437.45,619.8,431.511,621.376Z" transform="translate(-33.474 -42.174)" fill="#2e364d"/>
        <path id="Path_1592" data-name="Path 1592" d="M439.293,630.839c.03-.075.06-.149.086-.227.014-.045.026-.091.039-.137.021-.072.042-.145.059-.219.011-.049.02-.1.029-.15.014-.073.029-.146.039-.221.008-.052.012-.1.018-.157.009-.075.017-.151.021-.228,0-.053,0-.107.007-.161,0-.078,0-.156,0-.235,0-.054,0-.108,0-.163,0-.08-.006-.161-.013-.243,0-.053-.009-.107-.015-.161-.009-.083-.018-.168-.031-.252-.007-.052-.016-.1-.025-.156-.015-.087-.031-.174-.049-.262q-.016-.074-.033-.149c-.021-.09-.043-.18-.069-.27-.013-.047-.026-.094-.04-.141-.028-.093-.058-.186-.089-.279-.015-.044-.029-.087-.045-.13-.036-.1-.073-.192-.112-.288-.017-.039-.032-.078-.048-.117q-.065-.15-.137-.3l-.049-.1c-.053-.1-.109-.206-.167-.308-.015-.027-.029-.054-.045-.08-.065-.112-.134-.221-.2-.328l-.031-.049c-.083-.123-.17-.244-.261-.363h0c-.123.213-.247.431-.372.667-5.36,10.075-32.923,19.737-38.72,21.677v0a51.548,51.548,0,0,0,4.515,6.166c4.741-3.105,6.977-4.512,9.862-5.389,19.262-5.855,21-8.6,25.676-16.829a3.445,3.445,0,0,0,.158-.316C439.266,630.914,439.279,630.876,439.293,630.839Z" transform="translate(-33.788 -43.656)" opacity="0.05"/>
        <path id="Path_1593" data-name="Path 1593" d="M385.508,643.2a30.492,30.492,0,0,1-3.173-.168v2.546a.644.644,0,0,0,.644.644h5.059a.644.644,0,0,0,.644-.644v-2.552A30.065,30.065,0,0,1,385.508,643.2Z" transform="translate(-27.318 -50.649)" fill="#323233"/>
        <path id="Path_1594" data-name="Path 1594" d="M388.009,643.024v1.853a.382.382,0,0,1-.382.382h-4.24a.382.382,0,0,1-.382-.382v-1.848h-.671v2.546a.644.644,0,0,0,.644.644h5.059a.644.644,0,0,0,.644-.644v-2.552Z" transform="translate(-27.318 -50.649)" fill="#dbddd9"/>
        <g id="Group_739" data-name="Group 739" transform="translate(345.986 512.267)">
            <g id="Group_738" data-name="Group 738">
                <path id="Path_1595" data-name="Path 1595" d="M374.3,539.94c-1.964-.912-5.22-4.7-6.243-12.7-.754-5.905-1.516-12.6,5.7-13.84,4.533-1.513,15.5-2.735,17.5,4.9.967,8.963-2,22.057-6.446,21.6-.159,2.839-4.951,2.1-6.166,2.421C375.547,543.138,374.3,539.94,374.3,539.94Z" transform="translate(-367.594 -512.267)" fill="#3f2e18"/>
            </g>
        </g>
        <path id="Path_1596" data-name="Path 1596" d="M349.5,631.977l5.875,5.461,33.525.1,6-5.562a3.8,3.8,0,0,0,1.217-2.786H348.29A3.807,3.807,0,0,0,349.5,631.977Z" transform="translate(-14.13 -45.291)" fill="#c5c8c9"/>
        <path id="Path_1597" data-name="Path 1597" d="M348.29,629.19l8.886,7.292h31.082l7.867-7.292Z" transform="translate(-14.131 -45.291)" fill="#939699"/>
        <path id="Path_1598" data-name="Path 1598" d="M400.629,588.648c-.629-3.929-4.795-22.162-10.816-26.693-8.525-6.458-25.779-8.537-43.838-.555-6.256,3.1-9.185,23.558-10,28-1.537,8.346,11.305,11.164,13.185,11.523,3.784.722,4.916-1.163,5.461-2.585.943-2.461-6.908-6.688-7.393-9.389,2.068-10.149.586-9.735.024-13.995.61,2.891-.347,4.1,2.527,9.906.559,1.128,1.671,16.147,1.062,19.9-.238,1.471,35.454,1.39,35.095-.113-.868-3.639-.173-19.489.227-20.479a37.315,37.315,0,0,0,2.03-9.574c-.387,2.43-1.731,2.791,0,13-2.043,1.945-7.2,9.033-6.339,11.524.5,1.439,2.169,3.609,4.35,1.8C387.852,599.55,401.982,597.107,400.629,588.648Z" transform="translate(-9.309 -17.025)" fill="#1559aa"/>
        <path id="Path_1599" data-name="Path 1599" d="M389.674,559.476a2.567,2.567,0,0,0,.78-2.243,30.338,30.338,0,0,1-.335-7.318c.423-2.848-14.542-1.2-14.542-1.2s-.08,5.548-.491,8.3a2.574,2.574,0,0,0,.509,2,10.036,10.036,0,0,0,6.963,3.177A9.51,9.51,0,0,0,389.674,559.476Z" transform="translate(-24.498 -13.934)" fill="#f4ab7a"/>
        <path id="Path_1600" data-name="Path 1600" d="M403.652,537.607h0a1.16,1.16,0,0,1,1.057.828c.322,1.5-.3,4.6-1.075,5.289a3.966,3.966,0,0,1-1.664.747Z" transform="translate(-34.924 -9.816)" fill="#ffb380"/>
        <path id="Path_1601" data-name="Path 1601" d="M403.385,541.818c-.126,1.015-.369,1.349-.811,1.295s-.7-.923-.573-1.937.586-1.794,1.028-1.739S403.511,540.8,403.385,541.818Z" transform="translate(-34.924 -10.523)" opacity="0.05"/>
        <path id="Path_1602" data-name="Path 1602" d="M369.489,537.607h0a1.311,1.311,0,0,0-1.165.81c-.356,1.379-.031,3.993.963,4.942a3.986,3.986,0,0,0,1.431.822Z" transform="translate(-21.836 -9.816)" fill="#ffb380"/>
        <path id="Path_1603" data-name="Path 1603" d="M370.3,541.747c.126,1.015.36,1.42.8,1.366s.7-.923.573-1.937-.586-1.794-1.029-1.739S370.171,540.732,370.3,541.747Z" transform="translate(-22.63 -10.523)" opacity="0.05"/>
        <path id="Path_1604" data-name="Path 1604" d="M389.363,532.342c1.129.542.635,5.844.635,7.134,0,.506.554.27.83.265a29.613,29.613,0,0,1-.663,6.544c-.352,1.22-5.661,5.208-8.8,5.208s-8.861-4.714-9.164-5.946a35.222,35.222,0,0,1-.557-5.807c.43.06.781.075.781-.3,0-.559-.781-7.268,2.369-8.717C376.891,532.223,387.129,532.921,389.363,532.342Z" transform="translate(-23.178 -7.151)" fill="#ffb380"/>
        <path id="Path_1605" data-name="Path 1605" d="M354.5,586.211a.914.914,0,0,1-.083.4l.021-.032,0,0h0c.354.059-.347,4.105,2.527,9.906a35.967,35.967,0,0,1,.754,5.947c1.624-3.263,4.431-4.554,8.579-5.068C363.843,596.982,356.97,596.479,354.5,586.211Z" transform="translate(-16.505 -28.643)" opacity="0.05"/>
        <path id="Path_1606" data-name="Path 1606" d="M410.634,595.785a37.313,37.313,0,0,0,2.03-9.574c-2.03,9.574-8.745,10.772-13.635,11.331,1.841.329,8.937,1.977,10.962,11.183C410.006,603.042,410.379,596.415,410.634,595.785Z" transform="translate(-33.785 -28.643)" opacity="0.05"/>
        <path id="Path_1607" data-name="Path 1607" d="M360.969,641.869h30.083a2.861,2.861,0,0,0,2.862-2.861H358.108A2.861,2.861,0,0,0,360.969,641.869Z" transform="translate(-17.933 -49.094)" fill="#c5c8c9"/>
        <path id="Path_1608" data-name="Path 1608" d="M390.457,625.075H354.675l-5.429-19.891a1.7,1.7,0,0,1,1.638-2.145h43.365a1.7,1.7,0,0,1,1.638,2.145Z" transform="translate(-14.477 -35.161)" fill="#c5c8c9"/>
        <ellipse id="Ellipse_45" data-name="Ellipse 45" cx="3.339" cy="1.748" rx="3.339" ry="1.748" transform="translate(354.572 579.255)" fill="#e6e7e8"/>
        <g id="Group_740" data-name="Group 740" transform="translate(334.53 603.124)">
            <path id="Path_1609" data-name="Path 1609" d="M369.558,660.571a8.678,8.678,0,0,1-.844.259,91.643,91.643,0,0,1-14.4,1.461c-4.837.059-5.446,2.342-5.418,3.629s2.7,4.172,4.692,4.426c6.14.784,13.53-2.018,15-2.164,3.068-.306,4.694-2.512,4.877-3.748,0,0-2.916.805-2.3-.636a2.33,2.33,0,0,0-1.575-3.145C369.5,660.629,369.476,660.6,369.558,660.571Z" transform="translate(-348.895 -660.571)" fill="#083b84"/>
            <path id="Path_1610" data-name="Path 1610" d="M355.551,670.088a8.627,8.627,0,0,0-.73-6.727c-.17,0-.342.009-.507.011-4.837.059-5.446,2.342-5.418,3.629s2.7,4.172,4.692,4.426c6.14.784,13.53-2.018,15-2.164a6.042,6.042,0,0,0,3.423-1.442C367.882,668.911,355.48,672.027,355.551,670.088Z" transform="translate(-348.895 -661.652)" fill="#dce8ef"/>
            <path id="Path_1611" data-name="Path 1611" d="M376.089,661.464h0a7.814,7.814,0,0,1,1.168,4.158l0,.314" transform="translate(-359.428 -660.917)" fill="none" stroke="#e6e7e8" stroke-linecap="round" stroke-miterlimit="10" stroke-width="0.942"/>
            <path id="Path_1612" data-name="Path 1612" d="M372.852,661.981h0a7.814,7.814,0,0,1,1.169,4.157l0,.314" transform="translate(-358.175 -661.117)" fill="none" stroke="#e6e7e8" stroke-linecap="round" stroke-miterlimit="10" stroke-width="0.942"/>
            <path id="Path_1613" data-name="Path 1613" d="M369.577,662.4h0a7.82,7.82,0,0,1,1.168,4.157l0,.314" transform="translate(-356.906 -661.279)" fill="none" stroke="#e6e7e8" stroke-linecap="round" stroke-miterlimit="10" stroke-width="0.942"/>
            <path id="Path_1614" data-name="Path 1614" d="M366.8,662.715h0a7.809,7.809,0,0,1,1.168,4.157l0,.314" transform="translate(-355.829 -661.401)" fill="none" stroke="#e6e7e8" stroke-linecap="round" stroke-miterlimit="10" stroke-width="0.942"/>
        </g>
    </g>
</svg>
